<svg width="42" height="43" viewBox="0 0 42 43" version="1.1" xmlns="http://www.w3.org/2000/svg" xmlns:xlink="http://www.w3.org/1999/xlink">
<title>edit</title>
<desc>Created using Figma</desc>
<g id="Canvas" transform="translate(229 -31)">
<g id="edit">
<g id="Vector">
<use xlink:href="#path0_fill" transform="translate(-228 32)" fill="#5C0F34"/>
<mask id="mask0_outline_out">
<rect id="mask0_outline_inv" fill="white" x="-1" y="-1" width="34" height="43" transform="translate(-228 32)"/>
<use xlink:href="#path0_fill" fill="black" transform="translate(-228 32)"/>
</mask>
<g mask="url(#mask0_outline_out)">
<use xlink:href="#path1_stroke_2x" transform="translate(-228 32)" fill="#5C0F34"/>
</g>
</g>
<g id="Vector">
<use xlink:href="#path2_fill" transform="translate(-221.23 37.8961)" fill="#5C0F34"/>
<mask id="mask1_outline_out">
<rect id="mask1_outline_inv" fill="white" x="-1" y="-1" width="35" height="30" transform="translate(-221.23 37.8961)"/>
<use xlink:href="#path2_fill" fill="black" transform="translate(-221.23 37.8961)"/>
</mask>
<g mask="url(#mask1_outline_out)">
<use xlink:href="#path3_stroke_2x" transform="translate(-221.23 37.8961)" fill="#5C0F34"/>
</g>
</g>
</g>
</g>
<defs>
<path id="path0_fill" d="M 31.3896 22.7367C 30.8415 22.7367 30.397 23.1798 30.397 23.7263L 30.397 38.8358C 30.397 38.9378 30.3142 39.0209 30.2126 39.0209L 2.17085 39.0209C 2.06853 39.0209 1.98524 38.9378 1.98524 38.8358L 1.98524 10.1774L 8.03782 10.1774C 9.23436 10.1774 10.2076 9.20684 10.2076 8.01383L 10.2076 1.97922L 30.2125 1.97922C 30.3142 1.97922 30.397 2.06226 30.397 2.16428L 30.397 5.28677C 30.397 5.8333 30.8414 6.27638 31.3895 6.27638C 31.9376 6.27638 32.382 5.8333 32.382 5.28677L 32.382 2.16428C 32.382 0.970869 31.4089 4.55192e-15 30.2124 4.55192e-15L 9.21485 4.55192e-15C 8.95165 4.55192e-15 8.69922 0.104342 8.51305 0.289883L 0.290742 8.4879C 0.104651 8.67344 1.20101e-07 8.92521 1.20101e-07 9.18762L 1.20101e-07 38.8357C 1.20101e-07 40.0291 0.973826 41 2.17069 41L 30.2124 41C 31.4089 41 32.382 40.0291 32.382 38.8357L 32.382 23.7263C 32.3821 23.1799 31.9377 22.7367 31.3896 22.7367ZM 8.22255 8.01383C 8.22255 8.11545 8.13966 8.19809 8.03782 8.19809L 3.38932 8.19809L 8.22255 3.37906L 8.22255 8.01383Z"/>
<path id="path1_stroke_2x" d="M 1.98524 10.1774L 1.98524 9.97739L 1.78524 9.97739L 1.78524 10.1774L 1.98524 10.1774ZM 10.2076 1.97922L 10.2076 1.77922L 10.0076 1.77922L 10.0076 1.97922L 10.2076 1.97922ZM 8.51305 0.289883L 8.37187 0.148222L 8.37184 0.148253L 8.51305 0.289883ZM 0.290742 8.4879L 0.14953 8.34627L 0.290742 8.4879ZM 32.382 23.7263L 32.182 23.7263L 32.182 23.7263L 32.382 23.7263ZM 3.38932 8.19809L 3.2481 8.05647L 2.90547 8.39809L 3.38932 8.39809L 3.38932 8.19809ZM 8.22255 3.37906L 8.42255 3.37906L 8.42255 2.89722L 8.08134 3.23743L 8.22255 3.37906ZM 31.3896 22.5367C 30.7316 22.5367 30.197 23.0688 30.197 23.7263L 30.597 23.7263C 30.597 23.2908 30.9514 22.9367 31.3896 22.9367L 31.3896 22.5367ZM 30.197 23.7263L 30.197 38.8358L 30.597 38.8358L 30.597 23.7263L 30.197 23.7263ZM 30.197 38.8358C 30.197 38.8279 30.2032 38.8209 30.2126 38.8209L 30.2126 39.2209C 30.4253 39.2209 30.597 39.0477 30.597 38.8358L 30.197 38.8358ZM 30.2126 38.8209L 2.17085 38.8209L 2.17085 39.2209L 30.2126 39.2209L 30.2126 38.8209ZM 2.17085 38.8209C 2.17842 38.8209 2.18524 38.8268 2.18524 38.8358L 1.78524 38.8358C 1.78524 39.0488 1.95863 39.2209 2.17085 39.2209L 2.17085 38.8209ZM 2.18524 38.8358L 2.18524 10.1774L 1.78524 10.1774L 1.78524 38.8358L 2.18524 38.8358ZM 1.98524 10.3774L 8.03782 10.3774L 8.03782 9.97739L 1.98524 9.97739L 1.98524 10.3774ZM 8.03782 10.3774C 9.34428 10.3774 10.4076 9.31784 10.4076 8.01383L 10.0076 8.01383C 10.0076 9.09584 9.12445 9.97739 8.03782 9.97739L 8.03782 10.3774ZM 10.4076 8.01383L 10.4076 1.97922L 10.0076 1.97922L 10.0076 8.01383L 10.4076 8.01383ZM 10.2076 2.17922L 30.2125 2.17922L 30.2125 1.77922L 10.2076 1.77922L 10.2076 2.17922ZM 30.2125 2.17922C 30.2031 2.17922 30.197 2.17208 30.197 2.16428L 30.597 2.16428C 30.597 1.95243 30.4253 1.77922 30.2125 1.77922L 30.2125 2.17922ZM 30.197 2.16428L 30.197 5.28677L 30.597 5.28677L 30.597 2.16428L 30.197 2.16428ZM 30.197 5.28677C 30.197 5.94433 30.7315 6.47638 31.3895 6.47638L 31.3895 6.07638C 30.9513 6.07638 30.597 5.72228 30.597 5.28677L 30.197 5.28677ZM 31.3895 6.47638C 32.0475 6.47638 32.582 5.94433 32.582 5.28677L 32.182 5.28677C 32.182 5.72228 31.8277 6.07638 31.3895 6.07638L 31.3895 6.47638ZM 32.582 5.28677L 32.582 2.16428L 32.182 2.16428L 32.182 5.28677L 32.582 5.28677ZM 32.582 2.16428C 32.582 0.85995 31.5188 -0.2 30.2124 -0.2L 30.2124 0.2C 31.2989 0.2 32.182 1.08179 32.182 2.16428L 32.582 2.16428ZM 30.2124 -0.2L 9.21485 -0.2L 9.21485 0.2L 30.2124 0.2L 30.2124 -0.2ZM 9.21485 -0.2C 8.89875 -0.2 8.59554 -0.0746951 8.37187 0.148222L 8.65423 0.431544C 8.8029 0.283378 9.00456 0.2 9.21485 0.2L 9.21485 -0.2ZM 8.37184 0.148253L 0.14953 8.34627L 0.431954 8.62953L 8.65426 0.431513L 8.37184 0.148253ZM 0.14953 8.34627C -0.0741139 8.56925 -0.2 8.87194 -0.2 9.18762L 0.2 9.18762C 0.2 8.97847 0.283416 8.77763 0.431954 8.62953L 0.14953 8.34627ZM -0.2 9.18762L -0.2 38.8357L 0.2 38.8357L 0.2 9.18762L -0.2 9.18762ZM -0.2 38.8357C -0.2 40.1401 0.863932 41.2 2.17069 41.2L 2.17069 40.8C 1.08372 40.8 0.2 39.9181 0.2 38.8357L -0.2 38.8357ZM 2.17069 41.2L 30.2124 41.2L 30.2124 40.8L 2.17069 40.8L 2.17069 41.2ZM 30.2124 41.2C 31.5189 41.2 32.582 40.14 32.582 38.8357L 32.182 38.8357C 32.182 39.9181 31.2989 40.8 30.2124 40.8L 30.2124 41.2ZM 32.582 38.8357L 32.582 23.7263L 32.182 23.7263L 32.182 38.8357L 32.582 38.8357ZM 32.582 23.7263C 32.5821 23.0689 32.0476 22.5367 31.3896 22.5367L 31.3896 22.9367C 31.8278 22.9367 32.1821 23.2909 32.182 23.7263L 32.582 23.7263ZM 8.02255 8.01383C 8.02255 8.0045 8.02971 7.99809 8.03782 7.99809L 8.03782 8.39809C 8.24962 8.39809 8.42255 8.22641 8.42255 8.01383L 8.02255 8.01383ZM 8.03782 7.99809L 3.38932 7.99809L 3.38932 8.39809L 8.03782 8.39809L 8.03782 7.99809ZM 3.53053 8.33972L 8.36376 3.52069L 8.08134 3.23743L 3.2481 8.05647L 3.53053 8.33972ZM 8.02255 3.37906L 8.02255 8.01383L 8.42255 8.01383L 8.42255 3.37906L 8.02255 3.37906Z"/>
<path id="path2_fill" d="M 32.26 2.1434L 31.0921 0.979137C 29.7826 -0.326459 27.652 -0.326299 26.3424 0.979137L 17.072 10.2221L 0.99254 10.2221C 0.444386 10.2221 6.12759e-08 10.6652 6.12759e-08 11.2117C 6.12759e-08 11.7582 0.444386 12.2013 0.99254 12.2013L 15.087 12.2013L 9.11317 18.1574L 0.99254 18.1574C 0.444386 18.1574 6.12759e-08 18.6005 6.12759e-08 19.1471C 6.12759e-08 19.6936 0.444386 20.1367 0.99254 20.1367L 7.12801 20.1367L 7.11203 20.1526C 6.99091 20.2734 6.90337 20.4232 6.8575 20.5877L 5.32444 26.0928L 0.99254 26.0928C 0.444386 26.0928 6.12759e-08 26.5359 6.12759e-08 27.0824C 6.12759e-08 27.6289 0.444386 28.072 0.99254 28.072L 6.07909 28.072C 6.07917 28.072 6.29666 28.0475 6.32863 28.0392C 6.33385 28.0378 12.5931 26.3061 12.5931 26.3061C 12.758 26.2605 12.9084 26.173 13.0294 26.0524L 32.26 6.87882C 33.5693 5.57339 33.5693 3.44907 32.26 2.1434ZM 12.3276 23.9533L 9.21774 20.8526L 25.092 5.02525L 28.2019 8.12596L 12.3276 23.9533ZM 8.31515 22.7517L 10.4226 24.853L 7.50501 25.6606L 8.31515 22.7517ZM 30.8561 5.47937L 29.6055 6.72627L 26.4955 3.62549L 27.7461 2.37859C 28.2817 1.84462 29.153 1.8447 29.6883 2.37859L 30.8561 3.543C 31.3917 4.07688 31.3917 4.94557 30.8561 5.47937Z"/>
<path id="path3_stroke_2x" d="M 32.26 2.1434L 32.4012 2.00177L 32.4012 2.00176L 32.26 2.1434ZM 31.0921 0.979137L 30.9509 1.12077L 30.9509 1.12078L 31.0921 0.979137ZM 26.3424 0.979137L 26.2012 0.83749L 26.2012 0.837507L 26.3424 0.979137ZM 17.072 10.2221L 17.072 10.4221L 17.1547 10.4221L 17.2133 10.3637L 17.072 10.2221ZM 15.087 12.2013L 15.2282 12.3429L 15.5708 12.0013L 15.087 12.0013L 15.087 12.2013ZM 9.11317 18.1574L 9.11317 18.3574L 9.19584 18.3574L 9.25438 18.2991L 9.11317 18.1574ZM 7.12801 20.1367L 7.26922 20.2783L 7.61184 19.9367L 7.12801 19.9367L 7.12801 20.1367ZM 7.11203 20.1526L 7.25324 20.2942L 7.25324 20.2942L 7.11203 20.1526ZM 6.8575 20.5877L 6.66485 20.5339L 6.66484 20.534L 6.8575 20.5877ZM 5.32444 26.0928L 5.32444 26.2928L 5.47636 26.2928L 5.51711 26.1465L 5.32444 26.0928ZM 6.32863 28.0392L 6.37905 28.2327L 6.37909 28.2327L 6.32863 28.0392ZM 12.5931 26.3061L 12.6464 26.4989L 12.6464 26.4989L 12.5931 26.3061ZM 13.0294 26.0524L 12.8882 25.9107L 12.8882 25.9107L 13.0294 26.0524ZM 32.26 6.87882L 32.4012 7.02046L 32.4012 7.02045L 32.26 6.87882ZM 12.3276 23.9533L 12.1864 24.0949L 12.3276 24.2357L 12.4689 24.0949L 12.3276 23.9533ZM 9.21774 20.8526L 9.07653 20.7109L 8.93448 20.8526L 9.07653 20.9942L 9.21774 20.8526ZM 25.092 5.02525L 25.2332 4.88362L 25.0919 4.74283L 24.9507 4.88362L 25.092 5.02525ZM 28.2019 8.12596L 28.3431 8.26759L 28.4852 8.12596L 28.3431 7.98433L 28.2019 8.12596ZM 8.31515 22.7517L 8.45636 22.6101L 8.21422 22.3686L 8.12249 22.698L 8.31515 22.7517ZM 10.4226 24.853L 10.476 25.0457L 10.8072 24.954L 10.5638 24.7113L 10.4226 24.853ZM 7.50501 25.6606L 7.31234 25.607L 7.21743 25.9478L 7.55837 25.8534L 7.50501 25.6606ZM 30.8561 5.47937L 30.7149 5.33772L 30.7149 5.33774L 30.8561 5.47937ZM 29.6055 6.72627L 29.4643 6.86791L 29.6055 7.0087L 29.7467 6.86791L 29.6055 6.72627ZM 26.4955 3.62549L 26.3543 3.48385L 26.2123 3.62549L 26.3543 3.76712L 26.4955 3.62549ZM 29.6883 2.37859L 29.547 2.52018L 29.547 2.52022L 29.6883 2.37859ZM 30.8561 3.543L 30.7149 3.68463L 30.7149 3.68464L 30.8561 3.543ZM 32.4012 2.00176L 31.2333 0.837497L 30.9509 1.12078L 32.1188 2.28504L 32.4012 2.00176ZM 31.2333 0.837507C 29.8458 -0.545931 27.5889 -0.545734 26.2012 0.83749L 26.4836 1.12079C 27.7152 -0.106864 29.7195 -0.106987 30.9509 1.12077L 31.2333 0.837507ZM 26.2012 0.837507L 16.9308 10.0805L 17.2133 10.3637L 26.4836 1.12077L 26.2012 0.837507ZM 17.072 10.0221L 0.99254 10.0221L 0.99254 10.4221L 17.072 10.4221L 17.072 10.0221ZM 0.99254 10.0221C 0.334487 10.0221 -0.2 10.5542 -0.2 11.2117L 0.2 11.2117C 0.2 10.7762 0.554285 10.4221 0.99254 10.4221L 0.99254 10.0221ZM -0.2 11.2117C -0.2 11.8692 0.334487 12.4013 0.99254 12.4013L 0.99254 12.0013C 0.554285 12.0013 0.2 11.6472 0.2 11.2117L -0.2 11.2117ZM 0.99254 12.4013L 15.087 12.4013L 15.087 12.0013L 0.99254 12.0013L 0.99254 12.4013ZM 14.9457 12.0597L 8.97196 18.0158L 9.25438 18.2991L 15.2282 12.3429L 14.9457 12.0597ZM 9.11317 17.9574L 0.99254 17.9574L 0.99254 18.3574L 9.11317 18.3574L 9.11317 17.9574ZM 0.99254 17.9574C 0.334487 17.9574 -0.2 18.4895 -0.2 19.1471L 0.2 19.1471C 0.2 18.7115 0.554285 18.3574 0.99254 18.3574L 0.99254 17.9574ZM -0.2 19.1471C -0.2 19.8046 0.334487 20.3367 0.99254 20.3367L 0.99254 19.9367C 0.554285 19.9367 0.2 19.5826 0.2 19.1471L -0.2 19.1471ZM 0.99254 20.3367L 7.12801 20.3367L 7.12801 19.9367L 0.99254 19.9367L 0.99254 20.3367ZM 6.98679 19.995L 6.97081 20.011L 7.25324 20.2942L 7.26922 20.2783L 6.98679 19.995ZM 6.97081 20.011C 6.83265 20.1511 6.71918 20.3452 6.66485 20.5339L 7.05016 20.6414C 7.08755 20.5011 7.14917 20.3956 7.25324 20.2942L 6.97081 20.011ZM 6.66484 20.534L 5.13177 26.0391L 5.51711 26.1465L 7.05017 20.6413L 6.66484 20.534ZM 5.32444 25.8928L 0.99254 25.8928L 0.99254 26.2928L 5.32444 26.2928L 5.32444 25.8928ZM 0.99254 25.8928C 0.334487 25.8928 -0.2 26.4249 -0.2 27.0824L 0.2 27.0824C 0.2 26.6469 0.554285 26.2928 0.99254 26.2928L 0.99254 25.8928ZM -0.2 27.0824C -0.2 27.74 0.334488 28.272 0.99254 28.272L 0.99254 27.872C 0.554284 27.872 0.2 27.5179 0.2 27.0824L -0.2 27.0824ZM 0.99254 28.272L 6.07909 28.272L 6.07909 27.872L 0.99254 27.872L 0.99254 28.272ZM 6.07909 28.272C 6.08853 28.2718 6.09876 28.271 6.09957 28.271C 6.09988 28.2709 6.10034 28.2709 6.1005 28.2709C 6.10067 28.2709 6.10093 28.2708 6.10103 28.2708C 6.10114 28.2708 6.10132 28.2708 6.10142 28.2708C 6.10157 28.2708 6.10181 28.2707 6.10205 28.2707C 6.1025 28.2706 6.10318 28.2706 6.10402 28.2705C 6.10566 28.2703 6.10811 28.27 6.11118 28.2697C 6.11727 28.269 6.1261 28.268 6.13669 28.2667C 6.15776 28.2643 6.1866 28.2609 6.21627 28.2572C 6.26517 28.2512 6.34644 28.2412 6.37905 28.2327L 6.2782 27.8456C 6.28407 27.8441 6.27788 27.8457 6.24856 27.8497C 6.22484 27.8531 6.19627 27.8567 6.16753 27.8602C 6.13882 27.8637 6.11128 27.867 6.09055 27.8694C 6.08023 27.8706 6.07181 27.8716 6.06586 27.8722C 6.06291 27.8726 6.06065 27.8728 6.05908 27.873C 6.05831 27.8731 6.05777 27.8732 6.05739 27.8732C 6.05721 27.8732 6.05714 27.8732 6.05708 27.8732C 6.05707 27.8732 6.05729 27.8732 6.05723 27.8732C 6.05716 27.8732 6.05785 27.8731 6.05769 27.8732C 6.05785 27.8731 6.05831 27.8731 6.0586 27.8731C 6.05941 27.873 6.06964 27.8722 6.07909 27.872L 6.07909 28.272ZM 6.37909 28.2327C 6.38313 28.2317 7.95068 27.798 9.51614 27.3649C 10.2989 27.1484 11.0814 26.9319 11.6683 26.7695C 11.9618 26.6883 12.2063 26.6207 12.3774 26.5733C 12.463 26.5496 12.5303 26.531 12.5761 26.5183C 12.599 26.512 12.6166 26.5071 12.6285 26.5039C 12.6344 26.5022 12.6389 26.501 12.6419 26.5001C 12.6434 26.4997 12.6445 26.4994 12.6453 26.4992C 12.6456 26.4991 12.6459 26.499 12.6461 26.499C 12.6462 26.4989 12.6463 26.4989 12.6463 26.4989C 12.6464 26.4989 12.6464 26.4989 12.5931 26.3061C 12.5398 26.1134 12.5397 26.1134 12.5397 26.1134C 12.5396 26.1134 12.5396 26.1134 12.5395 26.1135C 12.5393 26.1135 12.539 26.1136 12.5386 26.1137C 12.5379 26.1139 12.5367 26.1142 12.5352 26.1146C 12.5322 26.1155 12.5277 26.1167 12.5218 26.1183C 12.51 26.1216 12.4924 26.1265 12.4695 26.1328C 12.4236 26.1455 12.3564 26.1641 12.2708 26.1878C 12.0996 26.2351 11.8551 26.3028 11.5617 26.384C 10.9748 26.5463 10.1922 26.7628 9.40948 26.9794C 7.84402 27.4125 6.27698 27.846 6.27816 27.8457L 6.37909 28.2327ZM 12.6464 26.4989C 12.8356 26.4448 13.0303 26.3316 13.1706 26.194L 12.8882 25.9107C 12.7865 26.0145 12.6805 26.0761 12.5397 26.1134L 12.6464 26.4989ZM 13.1706 26.194L 32.4012 7.02046L 32.1188 6.73719L 12.8882 25.9107L 13.1706 26.194ZM 32.4012 7.02045C 33.7889 5.63686 33.7889 3.38559 32.4012 2.00177L 32.1187 2.28502C 33.3498 3.51255 33.3497 5.50992 32.1188 6.73719L 32.4012 7.02045ZM 12.4689 23.8116L 9.35895 20.7109L 9.07653 20.9942L 12.1864 24.0949L 12.4689 23.8116ZM 9.35895 20.9942L 25.2332 5.16688L 24.9507 4.88362L 9.07653 20.7109L 9.35895 20.9942ZM 24.9507 5.16688L 28.0607 8.2676L 28.3431 7.98433L 25.2332 4.88362L 24.9507 5.16688ZM 28.0607 7.98433L 12.1864 23.8116L 12.4689 24.0949L 28.3431 8.26759L 28.0607 7.98433ZM 8.17394 22.8933L 10.2814 24.9946L 10.5638 24.7113L 8.45636 22.6101L 8.17394 22.8933ZM 10.3693 24.6602L 7.45165 25.4679L 7.55837 25.8534L 10.476 25.0457L 10.3693 24.6602ZM 7.69768 25.7143L 8.50782 22.8054L 8.12249 22.698L 7.31234 25.607L 7.69768 25.7143ZM 30.7149 5.33774L 29.4643 6.58464L 29.7467 6.86791L 30.9973 5.62101L 30.7149 5.33774ZM 29.7467 6.58464L 26.6368 3.48385L 26.3543 3.76712L 29.4643 6.86791L 29.7467 6.58464ZM 26.6368 3.76712L 27.8874 2.52022L 27.6049 2.23695L 26.3543 3.48385L 26.6368 3.76712ZM 27.8874 2.52022C 28.3448 2.06407 29.0899 2.06418 29.547 2.52018L 29.8295 2.23699C 29.2162 1.62523 28.2185 1.62518 27.6049 2.23695L 27.8874 2.52022ZM 29.547 2.52022L 30.7149 3.68463L 30.9973 3.40137L 29.8295 2.23695L 29.547 2.52022ZM 30.7149 3.68464C 31.1721 4.14038 31.1721 4.88208 30.7149 5.33772L 30.9973 5.62103C 31.6113 5.00906 31.6113 4.01339 30.9973 3.40136L 30.7149 3.68464Z"/>
</defs>
</svg>
