<svg width="43" height="27" viewBox="0 0 43 27" version="1.1" xmlns="http://www.w3.org/2000/svg" xmlns:xlink="http://www.w3.org/1999/xlink">
<title>envelope</title>
<desc>Created using Figma</desc>
<g id="Canvas" transform="translate(230 16)">
<g id="envelope">
<g id="Vector">
<use xlink:href="#path0_fill" transform="translate(-229 -15)" fill="#5C0F34"/>
<mask id="mask0_outline_out">
<rect id="mask0_outline_inv" fill="white" x="-1" y="-1" width="43" height="27" transform="translate(-229 -15)"/>
<use xlink:href="#path0_fill" fill="black" transform="translate(-229 -15)"/>
</mask>
<g mask="url(#mask0_outline_out)">
<use xlink:href="#path1_stroke_2x" transform="translate(-229 -15)" fill="#5C0F34"/>
</g>
</g>
</g>
</g>
<defs>
<path id="path0_fill" d="M 41.2758 2.10447C 41.2741 0.943393 40.3253 5.88554e-07 39.16 5.88554e-07C 39.159 5.88554e-07 39.158 5.88554e-07 39.1572 5.88554e-07L 2.11282 0.0507057C 1.54771 0.0514289 1.01664 0.271366 0.617551 0.669938C 0.218544 1.06859 -0.000724301 1.59814 1.75303e-06 2.16097L 0.0286405 22.8954C 0.0293666 23.4583 0.250168 23.9873 0.650305 24.3849C 1.04972 24.7817 1.58014 25 2.14428 25C 2.14525 25 2.1463 25 2.14711 25L 39.1915 24.9493C 40.3579 24.9477 41.3057 24.0012 41.3043 22.839L 41.2758 2.10447ZM 27.4969 15.4307L 37.0945 22.8448L 4.18232 22.8898L 13.8385 15.4307C 14.3001 15.074 14.3842 14.4121 14.0262 13.9522C 13.6681 13.4924 13.0036 13.4086 12.5419 13.7653L 2.14267 21.7985L 2.11685 3.11746L 20.0539 15.4649C 20.235 15.5895 20.4451 15.6517 20.6554 15.6517C 20.8665 15.6517 21.0778 15.5888 21.2592 15.4632L 39.1614 3.06699L 39.1885 21.7955L 28.7934 13.7653C 28.332 13.4088 27.6673 13.4925 27.3092 13.9523C 26.9511 14.4121 27.0351 15.074 27.4969 15.4307ZM 4.44015 2.15494L 36.836 2.11058L 20.6537 13.3158L 4.44015 2.15494Z"/>
<path id="path1_stroke_2x" d="M 41.2758 2.10447L 41.4758 2.1042L 41.4758 2.10418L 41.2758 2.10447ZM 39.1572 5.88554e-07L 39.1572 -0.2L 39.157 -0.199999L 39.1572 5.88554e-07ZM 2.11282 0.0507057L 2.11308 0.250706L 2.11309 0.250706L 2.11282 0.0507057ZM 0.617551 0.669938L 0.476221 0.528425L 0.476193 0.528453L 0.617551 0.669938ZM 1.75303e-06 2.16097L -0.199998 2.16122L -0.199998 2.16124L 1.75303e-06 2.16097ZM 0.0286405 22.8954L 0.22864 22.8952L 0.22864 22.8952L 0.0286405 22.8954ZM 0.650305 24.3849L 0.509347 24.5267L 0.509347 24.5267L 0.650305 24.3849ZM 2.14711 25L 2.14711 25.2L 2.14738 25.2L 2.14711 25ZM 39.1915 24.9493L 39.1918 25.1493L 39.1918 25.1493L 39.1915 24.9493ZM 41.3043 22.839L 41.5043 22.8388L 41.5043 22.8388L 41.3043 22.839ZM 27.4969 15.4307L 27.6192 15.2724L 27.6192 15.2724L 27.4969 15.4307ZM 37.0945 22.8448L 37.0948 23.0448L 37.6795 23.044L 37.2168 22.6865L 37.0945 22.8448ZM 4.18232 22.8898L 4.06005 22.7315L 3.59521 23.0906L 4.18259 23.0898L 4.18232 22.8898ZM 13.8385 15.4307L 13.9608 15.5889L 13.9608 15.5889L 13.8385 15.4307ZM 14.0262 13.9522L 14.184 13.8293L 14.184 13.8293L 14.0262 13.9522ZM 12.5419 13.7653L 12.4196 13.607L 12.4196 13.607L 12.5419 13.7653ZM 2.14267 21.7985L 1.94267 21.7988L 1.94323 22.2053L 2.26493 21.9568L 2.14267 21.7985ZM 2.11685 3.11746L 2.23026 2.95271L 1.91633 2.73661L 1.91685 3.11773L 2.11685 3.11746ZM 20.0539 15.4649L 20.1674 15.3002L 20.1673 15.3002L 20.0539 15.4649ZM 21.2592 15.4632L 21.373 15.6277L 21.3731 15.6276L 21.2592 15.4632ZM 39.1614 3.06699L 39.3614 3.0667L 39.3609 2.68562L 39.0476 2.90256L 39.1614 3.06699ZM 39.1885 21.7955L 39.0663 21.9538L 39.3891 22.2032L 39.3885 21.7952L 39.1885 21.7955ZM 28.7934 13.7653L 28.6711 13.9236L 28.6711 13.9236L 28.7934 13.7653ZM 27.3092 13.9523L 27.467 14.0751L 27.467 14.0751L 27.3092 13.9523ZM 4.44015 2.15494L 4.43987 1.95494L 3.79815 1.95582L 4.32674 2.31968L 4.44015 2.15494ZM 36.836 2.11058L 36.9498 2.27501L 37.4774 1.9097L 36.8357 1.91058L 36.836 2.11058ZM 20.6537 13.3158L 20.5403 13.4806L 20.6541 13.5589L 20.7676 13.4803L 20.6537 13.3158ZM 41.4758 2.10418C 41.4739 0.832003 40.4349 -0.199999 39.16 -0.199999L 39.16 0.200001C 40.2157 0.200001 41.0743 1.05478 41.0758 2.10477L 41.4758 2.10418ZM 39.16 -0.199999C 39.159 -0.199999 39.158 -0.199999 39.1572 -0.199999L 39.1572 0.200001C 39.158 0.200001 39.159 0.200001 39.16 0.200001L 39.16 -0.199999ZM 39.157 -0.199999L 2.11255 -0.149294L 2.11309 0.250706L 39.1575 0.2L 39.157 -0.199999ZM 2.11256 -0.149294C 1.49465 -0.148503 0.912825 0.0923857 0.476221 0.528425L 0.758881 0.81145C 1.12045 0.450346 1.60076 0.251361 2.11308 0.250706L 2.11256 -0.149294ZM 0.476193 0.528453C 0.0396513 0.964606 -0.200793 1.54513 -0.199998 2.16122L 0.200002 2.16071C 0.199344 1.65115 0.397437 1.17257 0.75891 0.811422L 0.476193 0.528453ZM -0.199998 2.16124L -0.171359 22.8957L 0.22864 22.8952L 0.200002 2.16069L -0.199998 2.16124ZM -0.171359 22.8957C -0.170565 23.5119 0.0715705 24.0918 0.509347 24.5267L 0.791262 24.243C 0.428765 23.8828 0.229298 23.4048 0.22864 22.8952L -0.171359 22.8957ZM 0.509347 24.5267C 0.946329 24.9609 1.52747 25.2 2.14428 25.2L 2.14428 24.8C 1.63281 24.8 1.1531 24.6025 0.791262 24.243L 0.509347 24.5267ZM 2.14428 25.2C 2.14525 25.2 2.1463 25.2 2.14711 25.2L 2.14711 24.8C 2.1463 24.8 2.14525 24.8 2.14428 24.8L 2.14428 25.2ZM 2.14738 25.2L 39.1918 25.1493L 39.1913 24.7493L 2.14683 24.8L 2.14738 25.2ZM 39.1918 25.1493C 40.4679 25.1475 41.5058 24.1121 41.5043 22.8388L 41.1043 22.8393C 41.1056 23.8902 40.2479 24.7478 39.1913 24.7493L 39.1918 25.1493ZM 41.5043 22.8388L 41.4758 2.1042L 41.0758 2.10475L 41.1043 22.8393L 41.5043 22.8388ZM 27.3746 15.5889L 36.9723 23.0031L 37.2168 22.6865L 27.6192 15.2724L 27.3746 15.5889ZM 37.0942 22.6448L 4.18204 22.6898L 4.18259 23.0898L 37.0948 23.0448L 37.0942 22.6448ZM 4.30458 23.0481L 13.9608 15.5889L 13.7163 15.2724L 4.06005 22.7315L 4.30458 23.0481ZM 13.9608 15.5889C 14.5099 15.1646 14.6101 14.3768 14.184 13.8293L 13.8683 14.075C 14.1582 14.4474 14.0904 14.9833 13.7162 15.2724L 13.9608 15.5889ZM 14.184 13.8293C 13.7581 13.2825 12.9684 13.1831 12.4196 13.607L 12.6641 13.9236C 13.0388 13.6341 13.578 13.7023 13.8684 14.0751L 14.184 13.8293ZM 12.4196 13.607L 2.0204 21.6402L 2.26493 21.9568L 12.6641 13.9235L 12.4196 13.607ZM 2.34267 21.7982L 2.31685 3.11718L 1.91685 3.11773L 1.94267 21.7988L 2.34267 21.7982ZM 2.00345 3.2822L 19.9405 15.6296L 20.1673 15.3002L 2.23026 2.95271L 2.00345 3.2822ZM 19.9405 15.6296C 20.1488 15.77 20.4165 15.8497 20.6554 15.8517L 20.6554 15.4517C 20.4738 15.4538 20.3211 15.409 20.1674 15.3002L 19.9405 15.6296ZM 20.6554 15.8517C 20.8953 15.8496 21.1643 15.7691 21.373 15.6277L 21.1454 15.2988C 20.9912 15.4085 20.8376 15.4538 20.6554 15.4517L 20.6554 15.8517ZM 21.3731 15.6276L 39.2753 3.23142L 39.0476 2.90256L 21.1453 15.2988L 21.3731 15.6276ZM 38.9614 3.06728L 38.9885 21.7958L 39.3885 21.7952L 39.3614 3.0667L 38.9614 3.06728ZM 39.3108 21.6372L 28.9156 13.6071L 28.6711 13.9236L 39.0663 21.9538L 39.3108 21.6372ZM 28.9157 13.6071C 28.3673 13.1833 27.5772 13.2825 27.1514 13.8294L 27.467 14.0751C 27.7573 13.7024 28.2968 13.6343 28.6711 13.9236L 28.9157 13.6071ZM 27.1515 13.8294C 26.7252 14.3767 26.8254 15.1647 27.3746 15.5889L 27.6192 15.2724C 27.2449 14.9833 27.1771 14.4474 27.467 14.0751L 27.1515 13.8294ZM 4.44042 2.35494L 36.8362 2.31058L 36.8357 1.91058L 4.43987 1.95494L 4.44042 2.35494ZM 36.7221 1.94615L 20.5399 13.1514L 20.7676 13.4803L 36.9498 2.27501L 36.7221 1.94615ZM 20.7671 13.1511L 4.55355 1.9902L 4.32674 2.31968L 20.5403 13.4806L 20.7671 13.1511Z"/>
</defs>
</svg>
