<svg width="44" height="39" viewBox="0 0 44 39" version="1.1" xmlns="http://www.w3.org/2000/svg" xmlns:xlink="http://www.w3.org/1999/xlink">
<title>group</title>
<desc>Created using Figma</desc>
<g id="Canvas" transform="translate(230 -94)">
<g id="group">
<g id="Group">
<g id="Group">
<g id="Vector">
<use xlink:href="#path0_fill" transform="translate(-229 95)" fill="#5C0F34"/>
<mask id="mask0_outline_out">
<rect id="mask0_outline_inv" fill="white" x="-1" y="-1" width="44" height="39" transform="translate(-229 95)"/>
<use xlink:href="#path0_fill" fill="black" transform="translate(-229 95)"/>
</mask>
<g mask="url(#mask0_outline_out)">
<use xlink:href="#path1_stroke_2x" transform="translate(-229 95)" fill="#5C0F34"/>
</g>
</g>
</g>
</g>
</g>
</g>
<defs>
<path id="path0_fill" d="M 42.1505 34.1491L 40.4807 28.3351C 40.4433 28.2106 40.3561 28.0986 40.2813 28.0114C 39.2471 24.8617 36.6925 22.4341 33.4651 21.5999L 32.9916 21.5252C 32.2688 21.326 31.4713 21.5626 30.9604 22.1602C 29.2034 24.1521 26.9728 24.3139 24.6177 24.3139C 22.2625 24.3139 20.0319 24.1521 18.2749 22.1602C 17.7515 21.5626 16.954 21.326 16.2437 21.5252L 15.7702 21.6497C 13.3154 22.2847 11.2468 23.8408 9.92593 25.9075L 4.90407 25.9075C 4.86669 25.9075 4.86669 25.9075 4.8293 25.8701C 4.8293 25.8328 4.79192 25.7954 4.79192 25.7083L 5.8262 21.9983C 6.74832 19.0851 8.49289 18.2137 11.9322 17.3422C 12.0942 17.3048 12.2063 17.2177 12.2935 17.143C 12.5677 17.3795 12.8917 17.5787 13.2157 17.7406C 13.3154 17.8153 13.44 17.8153 13.5521 17.8153C 13.8263 17.8153 14.1129 17.6534 14.2749 17.3795C 14.4743 16.9812 14.3123 16.5081 13.9135 16.3089C 12.0817 15.3503 10.7608 12.6363 10.7608 9.84758C 10.7608 7.38257 12.792 5.34085 15.2718 5.34085C 15.7453 5.34085 16.1939 5.41554 16.63 5.54004C 16.1939 6.6107 15.9571 7.76851 15.9571 9.00101C 15.9571 15.8109 20.0693 21.5501 24.9292 21.5501C 29.7143 21.5501 33.9386 15.6989 33.9386 9.00101C 33.9386 4.0212 29.9137 -7.59859e-07 24.9292 -7.59859e-07C 21.7765 -7.59859e-07 18.9852 1.63089 17.3902 4.10834C 16.7173 3.8718 15.9945 3.74731 15.2718 3.74731C 13.116 3.74731 11.2094 4.90511 10.1253 6.6107C 10.0505 6.536 9.96331 6.4862 9.88854 6.44886C 9.29041 6.12517 8.69227 6.01312 8.01937 6.01312C 5.78881 5.97577 3.9944 7.76851 3.9944 9.99697C 3.9944 11.2668 4.35578 12.462 4.91653 13.4206C 3.08474 13.8937 1.45233 14.6157 0.692193 17.0434L 0.0566745 19.359C -0.0679372 19.7574 0.0192898 20.1931 0.256052 20.5168C 0.492815 20.8779 0.928956 21.0771 1.37756 21.0771L 4.44301 21.0771C 4.40562 21.2389 4.3184 21.4007 4.28101 21.5501L 3.24673 25.2974C 3.08474 25.8203 3.20935 26.3681 3.57073 26.8163C 3.89472 27.252 4.36824 27.4886 4.92899 27.4886L 9.15333 27.4886C 9.02872 27.7624 8.95395 28.0488 8.87919 28.3227L 7.20939 34.174C 7.04739 34.8462 7.172 35.5683 7.60815 36.1285C 8.04429 36.6888 8.67981 37 9.36517 37L 40.0321 37C 40.705 37 41.3904 36.6763 41.7891 36.1285C 42.1879 35.5932 42.3499 34.8711 42.1505 34.1491ZM 18.3372 5.66454C 18.3746 5.62719 18.412 5.58984 18.4618 5.50269C 18.4992 5.46534 18.4992 5.3782 18.5366 5.34085C 19.7703 3.12483 22.1628 1.60599 24.9167 1.60599C 28.2314 1.60599 31.0227 3.79711 31.9697 6.78499C 30.5741 7.05888 29.1037 6.5111 28.2189 5.31595C 27.9448 4.95491 27.4588 4.88022 27.0974 5.1541C 26.9354 5.2786 26.8607 5.39065 26.8233 5.55249C 26.7859 5.58984 26.7859 5.62719 26.7485 5.67698C 25.627 7.9428 21.8887 8.90141 17.6145 8.06729C 17.7391 7.22073 17.9758 6.42396 18.3372 5.66454ZM 20.5678 9.93472C 23.7578 9.93472 26.3871 8.93876 27.7454 7.07133C 28.7423 7.9428 29.976 8.42833 31.2968 8.42833C 31.6208 8.42833 31.9697 8.39098 32.2937 8.30384C 32.3311 8.54038 32.3311 8.73957 32.3311 8.97611C 32.3311 14.8274 28.8669 19.969 24.9167 19.969C 21.1285 19.969 17.8138 15.2258 17.5397 9.64838C 18.574 9.84758 19.6207 9.93472 20.5678 9.93472ZM 1.67663 19.496L 2.23738 17.504C 2.7109 15.8731 3.7078 15.3876 5.70159 14.9145C 5.8262 14.8772 5.93835 14.8398 6.02558 14.7527C 6.22496 14.9145 6.38695 15.0266 6.62371 15.1511C 6.74833 15.2258 6.86047 15.2258 6.98509 15.2258C 7.25923 15.2258 7.54584 15.0639 7.70784 14.79C 7.90721 14.3917 7.74522 13.9186 7.38384 13.7194C 6.34957 13.1592 5.58944 11.603 5.58944 10.0094C 5.58944 8.65242 6.6611 7.58176 8.01937 7.58176C 8.45551 7.58176 8.81688 7.65646 9.17825 7.85565C 9.30287 7.893 9.37763 7.93035 9.50225 7.93035C 9.30287 8.52793 9.17825 9.16285 9.17825 9.84758C 9.17825 12.1134 9.93839 14.3543 11.1347 15.898C 8.72965 16.5081 6.61125 17.3048 5.2156 19.496L 1.67663 19.496ZM 40.5057 35.1948C 40.4309 35.2695 40.2689 35.4314 39.9823 35.4314L 9.32779 35.4314C 9.05364 35.4314 8.89165 35.2695 8.80442 35.1948C 8.67981 35.033 8.64242 34.7964 8.67981 34.6346L 10.3496 28.8207C 11.1471 26.0693 13.3403 23.9155 16.1316 23.2059L 16.6051 23.0814C 16.7297 23.0441 16.9291 23.1188 17.0413 23.2433C 19.2344 25.7581 21.951 25.9573 24.5803 25.9573C 27.2096 25.9573 29.9261 25.7581 32.1193 23.2433C 32.2439 23.1188 32.3934 23.0441 32.5928 23.0814L 33.0663 23.2059C 35.8202 23.928 38.0508 26.0693 38.8483 28.8207L 39.5711 31.2857C 39.6084 31.4102 39.6458 31.4849 39.7331 31.5596L 40.6053 34.5848C 40.6676 34.7964 40.6303 35.033 40.5057 35.1948Z"/>
<path id="path1_stroke_2x" d="M 42.1505 34.1491L 42.6325 34.016L 42.6311 34.011L 42.1505 34.1491ZM 40.4807 28.3351L 40.9613 28.1971L 40.9596 28.1913L 40.4807 28.3351ZM 40.2813 28.0114L 39.8063 28.1674L 39.8373 28.2617L 39.9019 28.337L 40.2813 28.0114ZM 33.4651 21.5999L 33.5902 21.1158L 33.5668 21.1098L 33.543 21.106L 33.4651 21.5999ZM 32.9916 21.5252L 32.8587 22.0073L 32.8858 22.0147L 32.9136 22.0191L 32.9916 21.5252ZM 30.9604 22.1602L 31.3354 22.491L 31.3404 22.4851L 30.9604 22.1602ZM 18.2749 22.1602L 17.8988 22.4896L 17.8999 22.4909L 18.2749 22.1602ZM 16.2437 21.5252L 16.3709 22.0089L 16.3788 22.0067L 16.2437 21.5252ZM 15.7702 21.6497L 15.8954 22.1338L 15.8974 22.1333L 15.7702 21.6497ZM 9.92593 25.9075L 9.92593 26.4075L 10.1998 26.4075L 10.3472 26.1767L 9.92593 25.9075ZM 4.8293 25.8701L 4.3293 25.8701L 4.3293 26.0774L 4.47592 26.2238L 4.8293 25.8701ZM 4.79192 25.7083L 4.31029 25.574L 4.29192 25.6399L 4.29192 25.7083L 4.79192 25.7083ZM 5.8262 21.9983L 5.34951 21.8474L 5.34689 21.8557L 5.34456 21.864L 5.8262 21.9983ZM 11.9322 17.3422L 11.8198 16.8549L 11.8094 16.8575L 11.9322 17.3422ZM 12.2935 17.143L 12.6202 16.7644L 12.2948 16.4837L 11.9683 16.7632L 12.2935 17.143ZM 13.2157 17.7406L 13.5155 17.3404L 13.4794 17.3134L 13.4391 17.2933L 13.2157 17.7406ZM 14.2749 17.3795L 14.7052 17.6341L 14.7142 17.619L 14.722 17.6033L 14.2749 17.3795ZM 13.9135 16.3089L 13.6816 16.752L 13.6901 16.7562L 13.9135 16.3089ZM 16.63 5.54004L 17.0931 5.72867L 17.3034 5.21229L 16.7673 5.05924L 16.63 5.54004ZM 17.3902 4.10834L 17.2244 4.58005L 17.5968 4.71099L 17.8106 4.37901L 17.3902 4.10834ZM 10.1253 6.6107L 9.77192 6.96442L 10.2129 7.40498L 10.5473 6.87892L 10.1253 6.6107ZM 9.88854 6.44886L 9.65057 6.88859L 9.65778 6.89249L 9.6651 6.89615L 9.88854 6.44886ZM 8.01937 6.01312L 8.01099 6.51312L 8.01937 6.51312L 8.01937 6.01312ZM 4.91653 13.4206L 5.04156 13.9047L 5.6822 13.7393L 5.34811 13.1681L 4.91653 13.4206ZM 0.692193 17.0434L 0.215037 16.894L 0.212378 16.9025L 0.210023 16.9111L 0.692193 17.0434ZM 0.0566745 19.359L 0.533875 19.5083L 0.536509 19.4999L 0.538845 19.4913L 0.0566745 19.359ZM 0.256052 20.5168L 0.674165 20.2426L 0.667159 20.2319L 0.659616 20.2216L 0.256052 20.5168ZM 4.44301 21.0771L 4.93018 21.1896L 5.07167 20.5771L 4.44301 20.5771L 4.44301 21.0771ZM 4.28101 21.5501L 4.76313 21.6832L 4.76606 21.6715L 4.28101 21.5501ZM 3.24673 25.2974L 3.72434 25.4454L 3.72664 25.438L 3.72871 25.4305L 3.24673 25.2974ZM 3.57073 26.8163L 3.97196 26.5179L 3.96611 26.5101L 3.95996 26.5024L 3.57073 26.8163ZM 9.15333 27.4886L 9.60844 27.6956L 9.93013 26.9886L 9.15333 26.9886L 9.15333 27.4886ZM 8.87919 28.3227L 9.36002 28.4599L 9.36154 28.4544L 8.87919 28.3227ZM 7.20939 34.174L 6.72858 34.0367L 6.72573 34.0467L 6.7233 34.0568L 7.20939 34.174ZM 41.7891 36.1285L 41.3881 35.8298L 41.3849 35.8343L 41.7891 36.1285ZM 18.3372 5.66454L 17.9838 5.31082L 17.9228 5.37179L 17.8857 5.44969L 18.3372 5.66454ZM 18.4618 5.50269L 18.1084 5.14897L 18.0611 5.19631L 18.0278 5.25445L 18.4618 5.50269ZM 18.5366 5.34085L 18.89 5.69457L 18.9395 5.64515L 18.9735 5.58405L 18.5366 5.34085ZM 31.9697 6.78499L 32.066 7.27563L 32.6156 7.16779L 32.4464 6.63392L 31.9697 6.78499ZM 28.2189 5.31595L 28.6208 5.01843L 28.6171 5.01358L 28.2189 5.31595ZM 27.0974 5.1541L 26.7954 4.75561L 26.7927 4.75766L 27.0974 5.1541ZM 26.8233 5.55249L 27.1767 5.90621L 27.2782 5.80481L 27.3105 5.66502L 26.8233 5.55249ZM 26.7485 5.67698L 26.3486 5.37681L 26.3209 5.41376L 26.3004 5.45518L 26.7485 5.67698ZM 17.6145 8.06729L 17.1198 7.99448L 17.0503 8.46663L 17.5187 8.55804L 17.6145 8.06729ZM 27.7454 7.07133L 28.0745 6.69489L 27.6627 6.33495L 27.3411 6.77723L 27.7454 7.07133ZM 32.2937 8.30384L 32.7876 8.22578L 32.7008 7.67657L 32.1639 7.821L 32.2937 8.30384ZM 17.5397 9.64838L 17.6343 9.15741L 17.009 9.037L 17.0403 9.67293L 17.5397 9.64838ZM 1.67663 19.496L 1.19533 19.3605L 1.01644 19.996L 1.67663 19.996L 1.67663 19.496ZM 2.23738 17.504L 1.75719 17.3646L 1.75609 17.3685L 2.23738 17.504ZM 5.70159 14.9145L 5.81702 15.401L 5.83119 15.3977L 5.84514 15.3935L 5.70159 14.9145ZM 6.02558 14.7527L 6.3407 14.3645L 5.99091 14.0806L 5.67219 14.399L 6.02558 14.7527ZM 6.62371 15.1511L 6.88078 14.7222L 6.86879 14.715L 6.85642 14.7085L 6.62371 15.1511ZM 7.70784 14.79L 8.13819 15.0446L 8.14712 15.0295L 8.15497 15.0138L 7.70784 14.79ZM 7.38384 13.7194L 7.62522 13.2815L 7.62198 13.2797L 7.38384 13.7194ZM 9.17825 7.85565L 8.93689 8.29354L 8.98361 8.31929L 9.0347 8.3346L 9.17825 7.85565ZM 9.50225 7.93035L 9.97654 8.0886L 10.1962 7.43035L 9.50225 7.43035L 9.50225 7.93035ZM 11.1347 15.898L 11.2576 16.3827L 11.9974 16.1951L 11.5299 15.5918L 11.1347 15.898ZM 5.2156 19.496L 5.2156 19.996L 5.48994 19.996L 5.63732 19.7646L 5.2156 19.496ZM 40.5057 35.1948L 40.859 35.5485L 40.882 35.5256L 40.9018 35.4999L 40.5057 35.1948ZM 8.80442 35.1948L 8.40825 35.4999L 8.43985 35.5409L 8.4792 35.5746L 8.80442 35.1948ZM 8.67981 34.6346L 8.19924 34.4966L 8.1956 34.5092L 8.19264 34.5221L 8.67981 34.6346ZM 10.3496 28.8207L 9.86937 28.6815L 9.86903 28.6826L 10.3496 28.8207ZM 16.1316 23.2059L 16.2548 23.6905L 16.2587 23.6895L 16.1316 23.2059ZM 16.6051 23.0814L 16.7323 23.565L 16.7405 23.5628L 16.7487 23.5604L 16.6051 23.0814ZM 17.0413 23.2433L 17.4181 22.9146L 17.4127 22.9086L 17.0413 23.2433ZM 32.1193 23.2433L 31.7659 22.8896L 31.7537 22.9017L 31.7424 22.9146L 32.1193 23.2433ZM 32.5928 23.0814L 32.7199 22.5979L 32.7025 22.5933L 32.6849 22.59L 32.5928 23.0814ZM 33.0663 23.2059L 32.9392 23.6895L 32.9395 23.6896L 33.0663 23.2059ZM 38.8483 28.8207L 38.3681 28.9599L 38.3685 28.9613L 38.8483 28.8207ZM 39.5711 31.2857L 39.0913 31.4263L 39.0922 31.4295L 39.5711 31.2857ZM 39.7331 31.5596L 40.2135 31.421L 40.172 31.2772L 40.0583 31.1798L 39.7331 31.5596ZM 40.6053 34.5848L 40.1249 34.7233L 40.1257 34.726L 40.6053 34.5848ZM 42.6311 34.011L 40.9613 28.1971L 40.0002 28.4732L 41.67 34.2871L 42.6311 34.011ZM 40.9596 28.1913C 40.8893 27.9571 40.738 27.7759 40.6608 27.6859L 39.9019 28.337C 39.9339 28.3743 39.9586 28.4056 39.9773 28.434C 39.9886 28.4509 39.9902 28.4533 39.9966 28.4669C 40.0007 28.4751 40.0019 28.4791 40.0019 28.4789L 40.9596 28.1913ZM 40.7564 27.8554C 39.6697 24.5461 36.9848 21.9931 33.5902 21.1158L 33.34 22.084C 36.4003 22.875 38.8245 25.1774 39.8063 28.1674L 40.7564 27.8554ZM 33.543 21.106L 33.0695 21.0313L 32.9136 22.0191L 33.3872 22.0938L 33.543 21.106ZM 33.1244 21.0432C 32.2135 20.7921 31.2165 21.0912 30.5804 21.8352L 31.3404 22.4851C 31.7261 22.0339 32.3241 21.8599 32.8587 22.0073L 33.1244 21.0432ZM 30.5854 21.8294C 28.9868 23.6418 26.9667 23.8139 24.6177 23.8139L 24.6177 24.8139C 26.9789 24.8139 29.42 24.6624 31.3354 22.4909L 30.5854 21.8294ZM 24.6177 23.8139C 22.2686 23.8139 20.2485 23.6418 18.6499 21.8294L 17.8999 22.4909C 19.8153 24.6624 22.2564 24.8139 24.6177 24.8139L 24.6177 23.8139ZM 18.651 21.8307C 18.0059 21.0941 17.0118 20.7905 16.1087 21.0438L 16.3788 22.0067C 16.8962 21.8615 17.4972 22.031 17.8988 22.4896L 18.651 21.8307ZM 16.1166 21.0417L 15.6431 21.1662L 15.8974 22.1333L 16.3709 22.0088L 16.1166 21.0417ZM 15.645 21.1657C 13.0983 21.8342 10.88 23.501 9.50463 25.6382L 10.3472 26.1767C 11.6136 24.1807 13.5324 22.7351 15.8954 22.1338L 15.645 21.1657ZM 9.92593 25.4075L 4.90407 25.4075L 4.90407 26.4075L 9.92593 26.4075L 9.92593 25.4075ZM 4.90407 25.4075C 4.88548 25.4075 4.90703 25.4069 4.93158 25.4094C 4.96983 25.4132 5.02742 25.4242 5.09013 25.4555C 5.14431 25.4826 5.17851 25.5133 5.18581 25.5199C 5.19204 25.5255 5.19583 25.5295 5.18269 25.5164L 4.47592 26.2238C 4.48526 26.2332 4.50169 26.2493 4.51719 26.2635C 4.53618 26.2806 4.57972 26.3184 4.64324 26.3501C 4.69802 26.3741 4.79037 26.3989 4.83217 26.4044C 4.86283 26.4068 4.89472 26.4075 4.90407 26.4075L 4.90407 25.4075ZM 5.3293 25.8701C 5.3293 25.779 5.3065 25.7082 5.29591 25.6776C 5.29099 25.6637 5.28515 25.6485 5.28249 25.6417C 5.27988 25.6351 5.27832 25.631 5.27872 25.6322C 5.28225 25.6416 5.29192 25.6722 5.29192 25.7083L 4.29192 25.7083C 4.29192 25.8315 4.32029 25.9244 4.3425 25.9836C 4.34678 25.9949 4.35069 26.0047 4.35246 26.0092C 4.3546 26.0146 4.35311 26.0111 4.35102 26.005C 4.34743 25.9947 4.3293 25.9426 4.3293 25.8701L 5.3293 25.8701ZM 5.27355 25.8425L 6.30783 22.1326L 5.34456 21.864L 4.31029 25.574L 5.27355 25.8425ZM 6.30289 22.1492C 6.73756 20.776 7.34772 19.9298 8.22311 19.3134C 9.12314 18.6797 10.34 18.2614 12.055 17.8269L 11.8094 16.8575C 10.0851 17.2944 8.71 17.7476 7.6474 18.4958C 6.56015 19.2613 5.83696 20.3075 5.34951 21.8474L 6.30289 22.1492ZM 12.0445 17.8294C 12.3088 17.7565 12.5224 17.6051 12.6188 17.5228L 11.9683 16.7632C 11.8963 16.8249 11.8601 16.8457 11.8198 16.855L 12.0445 17.8294ZM 11.9669 17.5216C 12.2725 17.7831 12.6488 18.0158 12.9922 18.1879L 13.4391 17.2933C 13.1346 17.1417 12.8629 16.976 12.6202 16.7644L 11.9669 17.5216ZM 12.9159 18.1407C 13.1703 18.3314 13.4717 18.3153 13.5521 18.3153L 13.5521 17.3153C 13.5225 17.3153 13.5037 17.3152 13.4864 17.3145C 13.47 17.3139 13.462 17.3128 13.4592 17.3124C 13.4567 17.312 13.4625 17.3127 13.4732 17.3168C 13.4846 17.3211 13.4997 17.3286 13.5155 17.3404L 12.9159 18.1407ZM 13.5521 18.3153C 14.0153 18.3153 14.4597 18.0493 14.7052 17.6341L 13.8445 17.125C 13.7661 17.2576 13.6373 17.3153 13.5521 17.3153L 13.5521 18.3153ZM 14.722 17.6033C 15.0472 16.9536 14.7785 16.1821 14.1369 15.8616L 13.6901 16.7562C 13.846 16.8341 13.9013 17.0088 13.8277 17.1558L 14.722 17.6033ZM 14.1453 15.8659C 12.5362 15.0238 11.2608 12.5261 11.2608 9.84758L 10.2608 9.84758C 10.2608 12.7465 11.6272 15.6767 13.6817 16.7519L 14.1453 15.8659ZM 11.2608 9.84758C 11.2608 7.65826 13.0686 5.84085 15.2718 5.84085L 15.2718 4.84085C 12.5154 4.84085 10.2608 7.10688 10.2608 9.84758L 11.2608 9.84758ZM 15.2718 5.84085C 15.7041 5.83915 16.084 5.90333 16.4928 6.02084L 16.7673 5.05924C 16.3038 4.92776 15.7865 4.84255 15.2718 4.84085L 15.2718 5.84085ZM 16.167 5.35141C 15.7154 6.46568 15.4597 7.71816 15.4571 9.00101L 16.4571 9.00101C 16.4546 7.81885 16.6724 6.75572 17.0931 5.72867L 16.167 5.35141ZM 15.4571 9.00101C 15.4571 12.5023 16.5133 15.743 18.2141 18.1202C 19.912 20.4935 22.2906 22.0501 24.9292 22.0501L 24.9292 21.0501C 22.7079 21.0501 20.6004 19.7371 19.0274 17.5384C 17.457 15.3435 16.4571 12.3096 16.4571 9.00101L 15.4571 9.00101ZM 24.9292 22.0501C 27.5346 22.0501 29.9212 20.4611 31.6342 18.0792C 33.3274 15.7155 34.432 12.4308 34.4386 9.00101L 33.4386 9.00101C 33.4452 12.2691 32.4377 15.2589 30.8224 17.4953C 29.227 19.7136 27.1089 21.0501 24.9292 21.0501L 24.9292 22.0501ZM 34.4386 9.00101C 34.4386 3.74462 30.1894 -0.500001 24.9292 -0.500001L 24.9292 0.499999C 29.6379 0.499999 33.4386 4.29778 33.4386 9.00101L 34.4386 9.00101ZM 24.9292 -0.500001C 21.6007 -0.500001 18.6536 1.22224 16.9698 3.83768L 17.8106 4.37901C 19.3168 2.03953 21.9523 0.499999 24.9292 0.499999L 24.9292 -0.500001ZM 17.556 3.63664C 16.8431 3.38788 16.0371 3.24913 15.2718 3.24731L 15.2718 4.24731C 15.9519 4.24549 16.5915 4.35572 17.2244 4.58005L 17.556 3.63664ZM 15.2718 3.24731C 12.933 3.24731 10.8726 4.50289 9.70333 6.34248L 10.5473 6.87892C 11.5462 5.30734 13.2989 4.24731 15.2718 4.24731L 15.2718 3.24731ZM 10.4787 6.25698C 10.3539 6.13852 10.1991 6.04528 10.112 6.00156L 9.6651 6.89615C 9.72311 6.92513 9.75382 6.94634 9.77192 6.96442L 10.4787 6.25698ZM 10.1265 6.00912C 9.45743 5.65389 8.7385 5.51526 8.01937 5.51312L 8.01937 6.51312C 8.64604 6.51098 9.12338 6.59644 9.65057 6.88859L 10.1265 6.00912ZM 8.02774 5.51319C 5.51337 5.47109 3.4944 7.49355 3.4944 9.99697L 4.4944 9.99697C 4.4944 8.04346 6.06426 6.48046 8.01099 6.51305L 8.02774 5.51319ZM 3.4944 9.99697C 3.49978 11.34 3.89751 12.662 4.48495 13.6731L 5.34811 13.1681C 4.81405 12.262 4.48903 11.1937 4.4944 9.99697L 3.4944 9.99697ZM 4.7915 12.9365C 3.85647 13.1784 2.90137 13.5136 2.10459 14.0975C 1.28091 14.7085 0.624116 15.5875 0.215037 16.894L 1.16935 17.1928C 1.5204 16.0716 2.05988 15.3758 2.70039 14.9006C 3.3678 14.3982 4.1448 14.1359 5.04156 13.9047L 4.7915 12.9365ZM 0.210023 16.9111L -0.425496 19.2267L 0.538845 19.4913L 1.17436 17.1757L 0.210023 16.9111ZM -0.420526 19.2098C -0.595534 19.7693 -0.471803 20.3687 -0.147512 20.812L 0.659616 20.2216C 0.510383 20.0176 0.45966 19.7455 0.533875 19.5083L -0.420526 19.2098ZM -0.162061 20.791C 0.183709 21.3183 0.79312 21.5771 1.37756 21.5771L 1.37756 20.5771C 1.06479 20.5771 0.80192 20.4374 0.674165 20.2426L -0.162061 20.791ZM 1.37756 21.5771L 4.44301 21.5771L 4.44301 20.5771L 1.37756 20.5771L 1.37756 21.5771ZM 3.95584 20.9645C 3.94624 21.0115 3.92714 21.0577 3.89658 21.1356C 3.86605 21.2134 3.824 21.3215 3.79597 21.4288L 4.76606 21.6715C 4.77541 21.6294 4.79566 21.5819 4.82744 21.501C 4.85919 21.4201 4.90239 21.3044 4.93018 21.1896L 3.95584 20.9645ZM 3.79903 21.4171L 2.76476 25.1644L 3.72871 25.4305L 4.76299 21.6832L 3.79903 21.4171ZM 2.76913 25.1495C 2.55247 25.8488 2.72758 26.5672 3.18149 27.1301L 3.95996 26.5024C 3.69113 26.169 3.61701 25.7918 3.72434 25.4454L 2.76913 25.1495ZM 3.16949 27.1146C 3.59011 27.6803 4.21401 27.9886 4.92899 27.9886L 4.92899 26.9886C 4.52247 26.9886 4.19933 26.8237 3.97196 26.5179L 3.16949 27.1146ZM 4.92899 27.9886L 9.15333 27.9886L 9.15333 26.9886L 4.92899 26.9886L 4.92899 27.9886ZM 8.69822 27.2815C 8.55754 27.5951 8.47088 27.9198 8.39684 28.191L 9.36154 28.4544C 9.43703 28.1778 9.4999 27.9298 9.60844 27.6956L 8.69822 27.2815ZM 8.39838 28.1855L 6.72858 34.0367L 7.69019 34.3112L 9.35999 28.4599L 8.39838 28.1855ZM 6.7233 34.0568C 6.52908 34.8628 6.6753 35.7442 7.21361 36.4357L 8.00268 35.8214C 7.6687 35.3924 7.56571 34.8296 7.69548 34.2911L 6.7233 34.0568ZM 7.21361 36.4357C 7.74245 37.115 8.5223 37.5 9.36517 37.5L 9.36517 36.5C 8.83731 36.5 8.34613 36.2625 8.00268 35.8214L 7.21361 36.4357ZM 9.36517 37.5L 40.0321 37.5L 40.0321 36.5L 9.36517 36.5L 9.36517 37.5ZM 40.0321 37.5C 40.853 37.5 41.6937 37.1092 42.1934 36.4228L 41.3849 35.8343C 41.0871 36.2434 40.5571 36.5 40.0321 36.5L 40.0321 37.5ZM 42.1901 36.4272C 42.6784 35.7717 42.8741 34.891 42.6325 34.016L 41.6686 34.2821C 41.8257 34.8513 41.6974 35.4147 41.3882 35.8298L 42.1901 36.4272ZM 18.6906 6.01825C 18.728 5.9809 18.8092 5.89351 18.8959 5.75094L 18.0278 5.25445C 18.0149 5.27709 18.0082 5.28532 18.0069 5.28681C 18.0048 5.28946 18.0029 5.2918 17.9838 5.31082L 18.6906 6.01825ZM 18.8152 5.85641C 18.8904 5.78134 18.928 5.70139 18.9455 5.65936C 18.9631 5.6171 18.975 5.57571 18.9781 5.56557C 18.9844 5.54459 18.9818 5.55485 18.9759 5.5691C 18.97 5.58311 18.9464 5.63817 18.89 5.69457L 18.1832 4.98713C 18.1081 5.0622 18.0705 5.14215 18.0529 5.18418C 18.0353 5.22644 18.0234 5.26783 18.0203 5.27797C 18.014 5.29895 18.0166 5.28868 18.0226 5.27444C 18.0284 5.26042 18.052 5.20537 18.1084 5.14897L 18.8152 5.85641ZM 18.9735 5.58405C 20.122 3.52099 22.3505 2.10599 24.9167 2.10599L 24.9167 1.10599C 21.9751 1.10599 19.4185 2.72867 18.0997 5.09764L 18.9735 5.58405ZM 24.9167 2.10599C 28.0047 2.10599 30.6092 4.14743 31.4931 6.93607L 32.4464 6.63392C 31.4362 3.44678 28.4581 1.10599 24.9167 1.10599L 24.9167 2.10599ZM 31.8735 6.29435C 30.6662 6.53126 29.3901 6.05767 28.6208 5.01846L 27.8171 5.61344C 28.8172 6.96454 30.4819 7.5865 32.066 7.27563L 31.8735 6.29435ZM 28.6171 5.01358C 28.1817 4.44007 27.384 4.30955 26.7954 4.75562L 27.3994 5.55259C 27.5336 5.45088 27.7079 5.46976 27.8207 5.61832L 28.6171 5.01358ZM 26.7927 4.75766C 26.5554 4.94007 26.4039 5.14641 26.3361 5.43996L 27.3105 5.66502C 27.3176 5.63416 27.3236 5.62555 27.3264 5.62145C 27.3314 5.61409 27.3485 5.59178 27.4021 5.55055L 26.7927 4.75766ZM 26.4699 5.19877C 26.3857 5.28287 26.3464 5.36925 26.332 5.40037C 26.3186 5.42938 26.3301 5.40151 26.3486 5.37681L 27.1484 5.97716C 27.2043 5.90266 27.2345 5.83122 27.2398 5.81976C 27.2433 5.8121 27.2378 5.82493 27.2274 5.84195C 27.2151 5.86207 27.1983 5.88462 27.1767 5.90621L 26.4699 5.19877ZM 26.3004 5.45518C 25.8278 6.41006 24.7685 7.1525 23.2379 7.55072C 21.6874 7.95778 19.7958 7.98631 17.7102 7.57655L 17.5187 8.55804C 19.7073 8.98239 21.822 8.94868 23.4896 8.51851C 25.1771 8.0795 26.5477 7.20973 27.1966 5.89879L 26.3004 5.45518ZM 18.1091 8.14011C 18.2273 7.32862 18.4426 6.60313 18.7887 5.87938L 17.8857 5.44969C 17.509 6.24478 17.2509 7.11283 17.1198 7.99448L 18.1091 8.14011ZM 20.5678 10.4347C 23.8393 10.4347 26.6592 9.41478 28.1498 7.36544L 27.3411 6.77723C 26.1151 8.46275 23.6764 9.43472 20.5678 9.43472L 20.5678 10.4347ZM 27.4163 7.44777C 28.4824 8.36993 29.8828 8.91957 31.2968 8.92833L 31.2968 7.92833C 30.0691 7.93709 29.0022 7.51567 28.0745 6.69489L 27.4163 7.44777ZM 31.2968 8.92833C 31.6475 8.92762 32.0616 8.88248 32.4236 8.78667L 32.1639 7.821C 31.8779 7.89949 31.5942 7.92904 31.2968 7.92833L 31.2968 8.92833ZM 31.7999 8.38189C 31.8327 8.57952 31.8311 8.73957 31.8311 8.97611L 32.8311 8.97611C 32.8311 8.73957 32.8296 8.50123 32.7876 8.22578L 31.7999 8.38189ZM 31.8311 8.97611C 31.8369 11.8257 31.0147 14.4328 29.6907 16.3873C 28.3833 18.3263 26.6643 19.469 24.9167 19.469L 24.9167 20.469C 27.1193 20.469 29.1075 19.041 30.5198 16.9463C 31.9155 14.8671 32.8253 11.9778 32.8311 8.97611L 31.8311 8.97611ZM 24.9167 19.469C 23.2421 19.469 21.6 18.4169 20.3182 16.6108C 19.0184 14.7882 18.1676 12.3417 18.0391 9.62384L 17.0403 9.67293C 17.186 12.5324 18.1296 15.2463 19.5027 17.1896C 20.8938 19.1496 22.8031 20.469 24.9167 20.469L 24.9167 19.469ZM 17.4451 10.1394C 18.5059 10.3429 19.6 10.4343 20.5678 10.4347L 20.5678 9.43472C 19.6415 9.43516 18.6421 9.35224 17.6343 9.15741L 17.4451 10.1394ZM 2.15792 19.6315L 2.71867 17.6395L 1.75609 17.3685L 1.19533 19.3605L 2.15792 19.6315ZM 2.71755 17.6435C 2.92825 16.9178 3.2369 16.4944 3.68315 16.1868C 4.15733 15.8599 4.82377 15.6367 5.81702 15.401L 5.58615 14.428C 4.58562 14.6654 3.75671 14.9215 3.11562 15.3634C 2.4466 15.8246 2.02004 16.4594 1.75721 17.3646L 2.71755 17.6435ZM 5.84514 15.3935C 5.96122 15.3587 6.1916 15.2936 6.37896 15.1064L 5.67219 14.399C 5.68093 14.3902 5.68511 14.3905 5.66988 14.3975C 5.64989 14.4066 5.6204 14.4169 5.55804 14.4356L 5.84514 15.3935ZM 5.71046 15.1409C 5.92496 15.3145 6.12791 15.4542 6.39101 15.5936L 6.85642 14.7085C 6.64599 14.5989 6.52495 14.5145 6.3407 14.3645L 5.71046 15.1409ZM 6.36664 15.5799C 6.61496 15.7077 6.86047 15.7258 6.98509 15.7258L 6.98509 14.7258C 6.95393 14.7258 6.93329 14.7259 6.91302 14.725C 6.8958 14.7243 6.8868 14.7233 6.88231 14.7225C 6.87868 14.722 6.88172 14.7228 6.88078 14.7222L 6.36664 15.5799ZM 6.98509 15.7258C 7.44825 15.7258 7.89264 15.4598 8.13819 15.0446L 7.27748 14.5355C 7.19904 14.6681 7.07022 14.7258 6.98509 14.7258L 6.98509 15.7258ZM 8.15497 15.0138C 8.47591 14.3725 8.21882 13.6087 7.62521 13.2815L 7.14248 14.1573C 7.27161 14.2284 7.33852 14.4108 7.26071 14.5663L 8.15497 15.0138ZM 7.62198 13.2797C 6.80316 12.8362 6.08944 11.4905 6.08944 10.0094L 5.08944 10.0094C 5.08944 11.7154 5.89597 13.4821 7.1457 14.159L 7.62198 13.2797ZM 6.08944 10.0094C 6.08944 8.92901 6.9368 8.08176 8.01937 8.08176L 8.01937 7.08176C 6.3854 7.08176 5.08944 8.37584 5.08944 10.0094L 6.08944 10.0094ZM 8.01937 8.08176C 8.40464 8.07917 8.64365 8.12549 8.93689 8.29354L 9.41962 7.41777C 8.99011 7.18743 8.50638 7.08436 8.01937 7.08176L 8.01937 8.08176ZM 9.0347 8.3346C 9.11869 8.35784 9.26285 8.417 9.50225 8.43035L 9.50225 7.43035C 9.48617 7.43249 9.50386 7.43413 9.47551 7.42565C 9.46087 7.42165 9.44675 7.41691 9.42086 7.40835C 9.3949 7.39977 9.36019 7.38827 9.32181 7.3767L 9.0347 8.3346ZM 9.02795 7.7721C 8.8194 8.40039 8.6806 9.11448 8.67825 9.84758L 9.67825 9.84758C 9.67591 9.21123 9.78633 8.65546 9.97654 8.0886L 9.02795 7.7721ZM 8.67825 9.84758C 8.67825 12.2149 9.46973 14.5658 10.7394 16.2043L 11.5299 15.5918C 10.407 14.1428 9.67825 12.0119 9.67825 9.84758L 8.67825 9.84758ZM 11.0117 15.4134C 8.58419 16.0291 6.2986 16.865 4.79388 19.2273L 5.63732 19.7646C 6.9239 17.7447 8.87511 16.987 11.2576 16.3827L 11.0117 15.4134ZM 5.2156 18.996L 1.67663 18.996L 1.67663 19.996L 5.2156 19.996L 5.2156 18.996ZM 40.1523 34.8411C 40.1149 34.8784 40.1042 34.895 40.0721 34.9088C 40.052 34.9205 40.0256 34.9314 39.9823 34.9314L 39.9823 35.9314C 40.4822 35.9314 40.7698 35.6377 40.859 35.5485L 40.1523 34.8411ZM 39.9823 34.9314L 9.32779 34.9314L 9.32779 35.9314L 39.9823 35.9314L 39.9823 34.9314ZM 9.32779 34.9314C 9.26636 34.9314 9.24057 34.91 9.12964 34.815L 8.4792 35.5746C 8.54272 35.629 8.84092 35.9314 9.32779 35.9314L 9.32779 34.9314ZM 9.20059 34.8898C 9.19343 34.8805 9.17949 34.8551 9.17134 34.8151C 9.16759 34.7966 9.16604 34.7795 9.16598 34.7656C 9.16592 34.7511 9.16748 34.745 9.16698 34.7471L 8.19264 34.5221C 8.12393 34.8195 8.18615 35.2114 8.40825 35.4999L 9.20059 34.8898ZM 9.16038 34.7726L 10.8302 28.9587L 9.86903 28.6826L 8.19924 34.4966L 9.16038 34.7726ZM 10.8298 28.9599C 11.5787 26.3762 13.6379 24.3558 16.2548 23.6905L 16.0084 22.7213C 13.0427 23.4753 10.7155 25.7624 9.86937 28.6815L 10.8298 28.9599ZM 16.2587 23.6895L 16.7323 23.565L 16.478 22.5979L 16.0045 22.7224L 16.2587 23.6895ZM 16.7487 23.5604C 16.703 23.5741 16.6711 23.572 16.6616 23.5711C 16.6507 23.57 16.6484 23.5684 16.6534 23.5702C 16.658 23.5719 16.6637 23.5748 16.6687 23.5781C 16.6739 23.5815 16.6737 23.5823 16.6698 23.5779L 17.4127 22.9086C 17.3085 22.7996 17.1304 22.6838 17.0023 22.6331C 16.8673 22.5828 16.6674 22.5408 16.4616 22.6025L 16.7487 23.5604ZM 16.6644 23.5719C 19.0126 26.2645 21.9341 26.4573 24.5803 26.4573L 24.5803 25.4573C 21.9679 25.4573 19.4562 25.2517 17.4181 22.9146L 16.6644 23.5719ZM 24.5803 26.4573C 27.2265 26.4573 30.1479 26.2645 32.4961 23.5719L 31.7424 22.9146C 29.7043 25.2517 27.1927 25.4573 24.5803 25.4573L 24.5803 26.4573ZM 32.4727 23.597C 32.5007 23.569 32.5116 23.5668 32.5055 23.5691C 32.5021 23.5704 32.4978 23.5714 32.4941 23.5717C 32.4905 23.572 32.4921 23.5713 32.5007 23.5729L 32.6849 22.59C 32.2796 22.514 31.9716 22.684 31.7659 22.8896L 32.4727 23.597ZM 32.4657 23.565L 32.9392 23.6895L 33.1935 22.7224L 32.7199 22.5979L 32.4657 23.565ZM 32.9395 23.6896C 35.5258 24.3677 37.6203 26.38 38.3681 28.9599L 39.3285 28.6815C 38.4813 25.7586 36.1147 23.4883 33.1931 22.7223L 32.9395 23.6896ZM 38.3685 28.9613L 39.0913 31.4263L 40.0509 31.145L 39.3281 28.68L 38.3685 28.9613ZM 39.0922 31.4295C 39.1437 31.5946 39.2519 31.7927 39.4078 31.9393L 40.0583 31.1798C 40.0546 31.1766 40.0556 31.1771 40.0589 31.181C 40.0624 31.1852 40.0654 31.1896 40.0674 31.193C 40.069 31.1959 40.0681 31.195 40.065 31.1871C 40.0617 31.1786 40.0568 31.1648 40.0499 31.1419L 39.0922 31.4295ZM 39.2526 31.6981L 40.1249 34.7233L 41.0858 34.4463L 40.2135 31.421L 39.2526 31.6981ZM 40.1257 34.726C 40.1481 34.802 40.1256 34.8689 40.1095 34.8898L 40.9018 35.4999C 41.1349 35.1971 41.1872 34.7908 41.085 34.4436L 40.1257 34.726Z"/>
</defs>
</svg>
