<svg width="24" height="20" viewBox="0 0 24 20" version="1.1" xmlns="http://www.w3.org/2000/svg" xmlns:xlink="http://www.w3.org/1999/xlink">
<title>photo</title>
<desc>Created using Figma</desc>
<g id="Canvas" transform="translate(169 145)">
<g id="photo">
<g id="Ellipse 3">
<mask id="mask0_outline_ins">
<use xlink:href="#path0_fill" fill="white" transform="translate(-163 -140)"/>
</mask>
<g mask="url(#mask0_outline_ins)">
<use xlink:href="#path1_stroke_2x" transform="translate(-163 -140)" fill="#FFFFFF"/>
</g>
</g>
<g id="Rectangle 6">
<mask id="mask1_outline_ins">
<use xlink:href="#path2_fill" fill="white" transform="translate(-169 -143)"/>
</mask>
<g mask="url(#mask1_outline_ins)">
<use xlink:href="#path3_stroke_2x" transform="translate(-169 -143)" fill="#FFFFFF"/>
</g>
</g>
<g id="Rectangle 7">
<use xlink:href="#path4_fill" transform="translate(-162 -145)" fill="#FFFFFF"/>
</g>
</g>
</g>
<defs>
<path id="path0_fill" d="M 12 6C 12 9.31371 9.31371 12 6 12C 2.68629 12 0 9.31371 0 6C 0 2.68629 2.68629 0 6 0C 9.31371 0 12 2.68629 12 6Z"/>
<path id="path1_stroke_2x" d="M 11 6C 11 8.76142 8.76142 11 6 11L 6 13C 9.86599 13 13 9.86599 13 6L 11 6ZM 6 11C 3.23858 11 1 8.76142 1 6L -1 6C -1 9.86599 2.13401 13 6 13L 6 11ZM 1 6C 1 3.23858 3.23858 1 6 1L 6 -1C 2.13401 -1 -1 2.13401 -1 6L 1 6ZM 6 1C 8.76142 1 11 3.23858 11 6L 13 6C 13 2.13401 9.86599 -1 6 -1L 6 1Z"/>
<path id="path2_fill" d="M 0 3C 0 1.34315 1.34315 0 3 0L 21 0C 22.6569 0 24 1.34315 24 3L 24 15C 24 16.6569 22.6569 18 21 18L 3 18C 1.34315 18 0 16.6569 0 15L 0 3Z"/>
<path id="path3_stroke_2x" d="M 3 1L 21 1L 21 -1L 3 -1L 3 1ZM 23 3L 23 15L 25 15L 25 3L 23 3ZM 21 17L 3 17L 3 19L 21 19L 21 17ZM 1 15L 1 3L -1 3L -1 15L 1 15ZM 3 -1C 0.790861 -1 -1 0.790861 -1 3L 1 3C 1 1.89543 1.89543 1 3 1L 3 -1ZM 21 1C 22.1046 1 23 1.89543 23 3L 25 3C 25 0.790861 23.2091 -1 21 -1L 21 1ZM 23 15C 23 16.1046 22.1046 17 21 17L 21 19C 23.2091 19 25 17.2091 25 15L 23 15ZM 3 17C 1.89543 17 1 16.1046 1 15L -1 15C -1 17.2091 0.790861 19 3 19L 3 17Z"/>
<path id="path4_fill" d="M 0 0L 10 0L 10 1L 0 1L 0 0Z"/>
</defs>
</svg>
