<svg width="17" height="20" viewBox="0 0 17 20" version="1.1" xmlns="http://www.w3.org/2000/svg" xmlns:xlink="http://www.w3.org/1999/xlink">
<title>pdf</title>
<desc>Created using Figma</desc>
<g id="Canvas" transform="translate(167 273)">
<g id="pdf">
<use xlink:href="#path0_fill" transform="translate(-167 -272)" fill="#651039"/>
</g>
</g>
<defs>
<path id="path0_fill" d="M 15.5647 3.7433L 12.2567 0.435268C 11.8644 0.0429688 11.0798 -0.285714 10.5179 -0.285714L 1.01786 -0.285714C 0.455915 -0.285714 0 0.1702 0 0.732143L 0 17.6964C 0 18.2584 0.455915 18.7143 1.01786 18.7143L 15.2679 18.7143C 15.8298 18.7143 16.2857 18.2584 16.2857 17.6964L 16.2857 5.48214C 16.2857 4.9202 15.957 4.1356 15.5647 3.7433ZM 10.8571 1.15625C 11.0374 1.21987 11.2176 1.31529 11.2919 1.38951L 14.6105 4.70815C 14.6847 4.78237 14.7801 4.96261 14.8438 5.14286L 10.8571 5.14286L 10.8571 1.15625ZM 14.9286 17.3571L 1.35714 17.3571L 1.35714 1.07143L 9.5 1.07143L 9.5 5.48214C 9.5 6.04409 9.95591 6.5 10.5179 6.5L 14.9286 6.5L 14.9286 17.3571ZM 9.47879 11.0698C 8.85324 10.5608 8.3019 9.6596 7.9308 8.54632C 8.05804 7.81473 8.06864 7.17857 8.07924 6.5106C 8.07924 6.40458 8.07924 6.29855 8.07924 6.19252C 8.07924 6.16071 8.07924 6.13951 8.06864 6.1077C 8.08984 6.0865 8.10045 6.05469 8.11105 6.02288C 8.17467 5.68359 8.14286 5.45034 8.01562 5.3019C 7.9308 5.19587 7.80357 5.14286 7.64453 5.14286L 7.63393 5.14286L 7.41127 5.14286C 7.19922 5.14286 7.04018 5.3019 6.96596 5.56696C 6.77511 6.26674 6.88114 7.45424 7.22042 8.60993C 6.96596 9.50056 6.59487 10.4336 6.11775 11.3878C 5.69364 12.2467 5.31194 12.9358 4.98326 13.4766C 4.98326 13.466 4.97266 13.4448 4.96205 13.4342C 4.90904 13.3493 4.80301 13.3175 4.71819 13.3705C 3.40346 14.0597 2.83092 14.8761 2.72489 15.3638C 2.69308 15.5759 2.73549 15.6925 2.7885 15.7455C 2.80971 15.7667 2.82031 15.7879 2.85212 15.7985L 3.10658 15.9258C 3.20201 15.9788 3.29743 16 3.40346 16C 4.03962 16 4.87723 15.0882 5.96931 13.2221C 7.10379 12.8298 8.65179 12.5011 10.1256 12.3421C 11.0162 12.8086 12.0446 13.1161 12.7232 13.1161C 13.2852 13.1161 13.4442 12.904 13.476 12.7132L 13.476 12.7026C 13.4866 12.692 13.4972 12.6708 13.5078 12.6602C 13.6244 12.4057 13.5608 12.2148 13.4866 12.1088C 13.2215 11.6741 12.3203 11.5893 11.6099 11.5893C 11.2282 11.5893 10.8147 11.6105 10.3694 11.6635C 10.0407 11.4727 9.74386 11.2818 9.47879 11.0698ZM 3.37165 15.4275C 3.53069 15.067 4.02902 14.3672 4.82422 13.7522C 4.14565 14.8231 3.68973 15.279 3.37165 15.4275ZM 7.59152 5.67299C 7.59152 5.66239 7.60212 5.65179 7.60212 5.63058C 7.66574 5.7048 7.72935 5.82143 7.73996 6.01228C 7.75056 6.03348 7.75056 6.05469 7.76116 6.06529C 7.73996 6.0971 7.72935 6.1183 7.71875 6.15011C 7.69754 6.27734 7.66574 6.42578 7.64453 6.60603C 7.62333 6.74386 7.60212 6.9029 7.57031 7.07254C 7.48549 6.47879 7.48549 5.96987 7.59152 5.67299ZM 6.27679 12.6814C 6.43583 12.3951 6.59487 12.0982 6.75391 11.8013C 7.1356 11.0485 7.43248 10.3594 7.63393 9.71261C 7.99442 10.4866 8.46094 11.1228 8.98047 11.5787C 9.07589 11.6635 9.18192 11.7377 9.28795 11.8225C 8.24888 12.0134 7.20982 12.3103 6.27679 12.6814ZM 13.1261 12.5117C 13.1367 12.5223 13.1473 12.5329 13.1473 12.5435C 13.1049 12.5541 13.0519 12.5541 12.9565 12.5541C 12.6384 12.5541 12.1613 12.4481 11.6417 12.2573C 12.7974 12.2573 13.0731 12.4587 13.1261 12.5117Z"/>
</defs>
</svg>
