<svg width="52" height="52" viewBox="0 0 52 52" version="1.1" xmlns="http://www.w3.org/2000/svg" xmlns:xlink="http://www.w3.org/1999/xlink">
<title>phone-call</title>
<desc>Created using Figma</desc>
<g id="Canvas" transform="translate(234 89)">
<g id="phone-call">
<g id="Vector">
<use xlink:href="#path0_fill" transform="translate(-234 -87.939)" fill="#5C0F34"/>
</g>
<g id="Vector">
<use xlink:href="#path1_fill" transform="translate(-207.176 -81.0891)" fill="#5C0F34"/>
</g>
<g id="Vector">
<use xlink:href="#path2_fill" transform="translate(-207.176 -89)" fill="#5C0F34"/>
</g>
<g id="Vector">
<use xlink:href="#path3_fill" transform="translate(-207.175 -73.1782)" fill="#5C0F34"/>
</g>
</g>
</g>
<defs>
<path id="path0_fill" d="M 39.8363 29.4319C 38.62 28.2157 36.6414 28.2157 35.425 29.4319L 32.7755 32.0815C 31.9453 32.9116 31.6829 34.097 31.986 35.1528L 30.9863 36.1525C 30.986 36.1528 30.9858 36.153 30.9855 36.1533C 30.2756 36.864 25.8543 35.7734 20.5098 30.4289C 15.1662 25.0854 14.0752 20.6648 14.7851 19.9536C 14.7851 19.9534 14.7853 19.9534 14.7853 19.9534L 15.7859 18.9529C 16.0684 19.034 16.3599 19.0755 16.6515 19.0755C 17.4503 19.0755 18.249 18.7715 18.8573 18.1634L 21.5069 15.5139C 22.7231 14.2977 22.7231 12.3189 21.5069 11.1026L 11.3176 0.913453C 10.7285 0.32439 9.94514 6.32286e-07 9.11202 6.32286e-07C 8.2787 6.32286e-07 7.49565 0.324593 6.90648 0.913453L 4.2567 3.56322C 3.42653 4.39339 3.16409 5.57883 3.46726 6.63457C 3.46726 6.63457 2.61981 7.49013 2.57767 7.54416C -0.241009 10.6773 -0.769847 15.6101 1.09881 21.5077C 2.92867 27.2822 6.87337 33.3994 12.2064 38.7322C 17.5393 44.065 23.6565 48.0097 29.4311 49.8398C 31.7509 50.5748 33.9209 50.939 35.8916 50.939C 39.1226 50.939 41.8165 49.9591 43.7475 48.0282L 44.3035 47.4722C 44.5817 47.5523 44.8724 47.5954 45.17 47.5954C 46.0033 47.5954 46.7866 47.2708 47.3755 46.682L 50.0253 44.0322C 51.2415 42.816 51.2415 40.8373 50.0253 39.621L 39.8363 29.4319ZM 9.11202 3.11898L 19.3012 13.3082L 16.6531 15.9592C 16.6531 15.9592 16.6526 15.9587 16.6516 15.9578L 16.6136 15.9197L 11.557 10.8632L 6.46245 5.76865L 9.11202 3.11898ZM 41.5421 45.8226C 41.5419 45.8228 41.5418 45.8229 41.5416 45.8231C 39.2976 48.0667 35.3314 48.4373 30.3736 46.8661C 25.0667 45.1844 19.3982 41.5124 14.4124 36.5264C 9.42625 31.5405 5.75425 25.8722 4.07267 20.5653C 2.50149 15.6073 2.8721 11.641 5.11623 9.39676L 5.11643 9.39656L 5.39776 9.11523L 13.305 17.0225L 12.5798 17.7477C 12.5793 17.7482 12.5789 17.7489 12.5783 17.7495C 9.57352 20.758 13.1839 27.5144 18.3042 32.6347C 22.1365 36.467 26.8855 39.4536 30.2938 39.4536C 31.4398 39.4536 32.4343 39.1159 33.1912 38.3589C 33.1915 38.3586 33.1917 38.3584 33.192 38.3581L 33.9164 37.6337L 41.8238 45.5409L 41.5421 45.8226ZM 45.1701 44.4763L 34.981 34.2872L 37.6306 31.6376L 47.8198 41.8266C 47.8198 41.8266 45.1711 44.4773 45.1701 44.4763Z"/>
<path id="path1_fill" d="M 14.1454 15.7049C 14.1454 16.5663 14.8436 17.2647 15.705 17.2647C 16.5662 17.2647 17.2646 16.5665 17.2646 15.7053C 17.2648 11.5103 15.631 7.56661 12.6649 4.60007C 9.69834 1.63353 5.75435 -0.000101731 1.5596 -1.68833e-07C 0.698245 -1.68833e-07 -3.84332e-07 0.698242 -3.84332e-07 1.55959C -3.84332e-07 2.42095 0.698346 3.11919 1.5596 3.11919C 4.92133 3.11898 8.08187 4.42833 10.4594 6.8056C 12.8363 9.18267 14.1455 12.3432 14.1454 15.7049Z"/>
<path id="path2_fill" d="M 18.2594 6.91712C 13.7984 2.45639 7.86767 -0.000203112 1.5596 1.25956e-08C 0.698244 1.25956e-08 -7.68665e-07 0.698344 -7.68665e-07 1.55959C -7.68665e-07 2.42095 0.698346 3.11919 1.5596 3.11919C 7.03455 3.11898 12.1819 5.25119 16.0536 9.12265C 19.925 12.994 22.0571 18.1413 22.057 23.6162C 22.057 24.4776 22.7553 25.1758 23.6166 25.1758C 24.4779 25.1758 25.1762 24.4776 25.1762 23.6164C 25.1763 17.3082 22.7198 11.3777 18.2594 6.91712Z"/>
<path id="path3_fill" d="M 1.5594 -3.47137e-07C 0.698042 0.000202778 -0.000202858 0.698343 2.67468e-07 1.5598C 0.000203393 2.42115 0.69855 3.11939 1.5598 3.11919C 1.56001 3.11919 1.56011 3.11919 1.56031 3.11919C 2.84447 3.11919 3.95649 3.57987 4.86507 4.48835C 5.76075 5.38413 6.23423 6.52722 6.23413 7.7936C 6.23393 8.65495 6.93238 9.3532 7.79353 9.3534L 7.79373 9.3534C 8.65509 9.3534 9.35313 8.65516 9.35333 7.79401C 9.35354 5.68232 8.56419 3.7766 7.0705 2.28282C 5.57692 0.789241 3.6717 -3.47137e-07 1.56011 -3.47137e-07C 1.56001 -3.47137e-07 1.5595 -3.47137e-07 1.5594 -3.47137e-07Z"/>
</defs>
</svg>
