<svg width="40" height="52" viewBox="0 0 40 52" version="1.1" xmlns="http://www.w3.org/2000/svg" xmlns:xlink="http://www.w3.org/1999/xlink">
<title>placeholder</title>
<desc>Created using Figma</desc>
<g id="Canvas" transform="translate(228 163)">
<g id="placeholder">
<g id="Vector">
<use xlink:href="#path0_fill" transform="translate(-228 -163)" fill="#5C0F34"/>
</g>
<g id="Vector">
<use xlink:href="#path1_fill" transform="translate(-214.301 -152.68)" fill="#5C0F34"/>
</g>
</g>
</g>
<defs>
<path id="path0_fill" d="M 39.0293 50.1684L 32.148 35.6672C 32.0107 35.3779 31.7727 35.1562 31.4874 35.0352L 28.064 33.517L 33.9958 23.6128C 34.01 23.589 34.0233 23.5649 34.0361 23.5405C 35.2154 21.2473 35.8134 18.7693 35.8134 16.1757C 35.8134 11.8127 34.096 7.72232 30.9775 4.65829C 27.8596 1.59486 23.7289 -0.0596965 19.3467 0.0016472C 15.0906 0.0604519 11.0833 1.76355 8.06268 4.79743C 5.04239 7.8311 3.36516 11.837 3.33988 16.0776C 3.32438 18.6689 3.93902 21.2494 5.11692 23.5403C 5.12956 23.5647 5.14291 23.5889 5.15708 23.6126L 11.0888 33.5167L 7.64561 35.0433C 7.36393 35.1682 7.13659 35.3895 7.00488 35.6671L 0.12365 50.1684C -0.106649 50.6534 -0.00949294 51.2301 0.3671 51.6137C 0.74359 51.9973 1.3198 52.1071 1.81189 51.889L 10.4323 48.0656L 19.0528 51.889C 19.3863 52.0368 19.767 52.0368 20.1005 51.889L 28.7209 48.0656L 37.3414 51.889C 37.5098 51.9636 37.6881 52 37.8649 52C 38.2045 52 38.5385 51.8661 38.7862 51.6138C 39.1625 51.2301 39.2595 50.6536 39.0293 50.1684ZM 5.91588 16.0929C 5.95951 8.73683 12.0007 2.66939 19.3825 2.56752C 23.0695 2.51816 26.5456 3.90804 29.1687 6.48539C 31.7926 9.06335 33.2375 12.5047 33.2375 16.1757C 33.2375 18.3449 32.7411 20.4166 31.762 22.3342L 20.6826 40.8336C 20.3445 41.3983 19.7965 41.4592 19.5766 41.4592C 19.3567 41.4592 18.8087 41.3983 18.4706 40.8336L 7.39105 22.3342C 6.39911 20.3912 5.90273 18.2916 5.91588 16.0929ZM 29.2445 45.489C 28.9111 45.3413 28.5303 45.3413 28.1968 45.489L 19.5764 49.3125L 10.9559 45.489C 10.6225 45.3413 10.2417 45.3413 9.90823 45.489L 3.93637 48.1378L 9.12935 37.1945L 12.418 35.7365L 16.2582 42.1484C 16.9621 43.3237 18.2025 44.0254 19.5763 44.0254C 20.95 44.0254 22.1905 43.3237 22.8944 42.1485L 26.7345 35.7366L 30.0234 37.1951L 35.2161 48.1379L 29.2445 45.489Z"/>
<path id="path1_fill" d="M 11.7562 5.85589C 11.7562 2.62691 9.11937 1.73569e-07 5.87817 1.73569e-07C 2.63686 1.73569e-07 1.24447e-07 2.62691 1.24447e-07 5.85589C 1.24447e-07 9.08486 2.63686 11.7118 5.87817 11.7118C 9.11937 11.7119 11.7562 9.08476 11.7562 5.85589ZM 2.5759 5.85589C 2.5759 4.04188 4.05729 2.56608 5.87827 2.56608C 7.69915 2.56608 9.18054 4.04188 9.18054 5.85589C 9.18054 7.66989 7.69915 9.1457 5.87827 9.1457C 4.05739 9.1457 2.5759 7.67 2.5759 5.85589Z"/>
</defs>
</svg>
