<svg width="27" height="16" viewBox="0 0 27 16" version="1.1" xmlns="http://www.w3.org/2000/svg" xmlns:xlink="http://www.w3.org/1999/xlink">
<title>vk</title>
<desc>Created using Figma</desc>
<g id="Canvas" transform="translate(224 417)">
<g id="vk">
<use xlink:href="#path0_fill" transform="translate(-223 -423)" fill="#651039"/>
</g>
</g>
<defs>
<path id="path0_fill" d="M 25.6741 7.39286C 25.6741 7.39286 25.4866 6.85714 24.3214 7.00446L 20.4643 7.03125C 20.1696 6.99107 19.9554 7.11161 19.9554 7.11161C 19.9554 7.11161 19.7277 7.23214 19.6205 7.52679C 18.9911 9.14732 18.1875 10.5402 18.1875 10.5402C 16.4732 13.4598 15.7768 13.6205 15.4955 13.433C 14.8393 13.0179 15.0134 11.7455 15.0134 10.8348C 15.0134 7.99554 15.442 6.81696 14.1696 6.50893C 13.7545 6.41518 13.4464 6.34821 12.3616 6.33482C 10.9821 6.32143 9.81696 6.33482 9.16071 6.65625C 8.71875 6.87054 8.38393 7.35268 8.58482 7.37946C 8.83929 7.41964 9.41518 7.54018 9.72321 7.95536C 9.72321 7.95536 10.058 8.50446 10.1116 9.70982C 10.2589 13.0446 9.57589 13.4598 9.57589 13.4598C 9.05357 13.7411 8.14286 13.2723 6.80357 10.5134C 6.80357 10.5134 6.02679 9.14732 5.42411 7.64732C 5.31696 7.36607 5.10268 7.21875 5.10268 7.21875C 5.10268 7.21875 4.86161 7.03125 4.51339 6.97768L 0.84375 7.00446C 0.28125 7.00446 0.0803571 7.25893 0.0803571 7.25893C 0.0803571 7.25893 -0.120536 7.47321 0.0669643 7.91518C 2.93304 14.6518 6.20089 18.0268 6.20089 18.0268C 6.20089 18.0268 9.1875 21.1473 12.5759 20.933L 14.1161 20.933C 14.5848 20.8929 14.8259 20.6384 14.8259 20.6384C 14.8259 20.6384 15.0402 20.3973 15.0268 19.9554C 15 17.8929 15.9643 17.5848 15.9643 17.5848C 16.9018 17.2902 18.1071 19.5804 19.3929 20.4643C 19.3929 20.4643 20.3705 21.1339 21.1071 20.9866L 24.5357 20.933C 26.3438 20.9196 25.4866 19.4196 25.4866 19.4196C 25.4196 19.2991 24.9911 18.375 22.9286 16.4598C 20.7857 14.4643 21.067 14.7857 23.6652 11.3304C 25.2455 9.22768 25.875 7.94196 25.6741 7.39286Z"/>
</defs>
</svg>
