<?xml version="1.0" standalone="no"?>
<!DOCTYPE svg PUBLIC "-//W3C//DTD SVG 20010904//EN"
 "http://www.w3.org/TR/2001/REC-SVG-20010904/DTD/svg10.dtd">
<svg version="1.0" xmlns="http://www.w3.org/2000/svg"
 width="260.000000pt" height="260.000000pt" viewBox="0 0 260.000000 260.000000"
 preserveAspectRatio="xMidYMid meet">
<metadata>
Created by potrace 1.11, written by Peter Selinger 2001-2013
</metadata>
<g transform="translate(0.000000,260.000000) scale(0.100000,-0.100000)"
fill="#000000" stroke="none">
<path d="M1585 2453 c-126 -80 -249 -158 -273 -172 -23 -14 -149 -93 -280
-176 -130 -82 -245 -154 -254 -160 -10 -5 -87 -53 -170 -106 -209 -131 -228
-142 -228 -132 0 4 -4 3 -8 -3 -4 -6 -77 -46 -162 -89 -85 -43 -167 -85 -183
-92 l-27 -15 1 -119 1 -118 208 -214 c218 -223 224 -229 715 -894 l120 -162
321 0 c246 0 321 2 322 12 0 6 3 22 6 35 3 12 8 30 10 40 2 9 9 37 16 62 7 25
13 52 15 60 2 8 7 33 13 55 5 22 13 53 16 68 4 18 11 25 19 21 9 -5 9 -4 1 5
-9 9 -8 24 3 59 8 26 16 56 17 67 4 27 36 156 43 175 4 8 6 18 5 21 -1 4 3 22
9 40 6 19 13 45 16 59 10 50 11 55 13 55 1 0 4 11 6 24 2 14 12 52 20 85 9 34
17 66 18 71 1 6 8 20 14 33 7 12 10 22 6 22 -3 0 -1 7 6 15 7 8 9 15 5 15 -4
0 -3 6 2 13 10 11 94 256 99 287 2 8 7 23 13 35 5 11 17 40 25 65 8 25 58 171
111 325 53 154 112 327 131 385 19 58 38 112 41 120 3 8 7 20 9 25 1 6 17 51
34 100 17 50 35 102 40 117 l8 27 -331 0 -332 0 -230 -146z"/>
</g>
</svg>
