<?xml version="1.0" standalone="no"?>
<!DOCTYPE svg PUBLIC "-//W3C//DTD SVG 20010904//EN"
 "http://www.w3.org/TR/2001/REC-SVG-20010904/DTD/svg10.dtd">
<svg version="1.0" xmlns="http://www.w3.org/2000/svg"
 width="260.000000pt" height="260.000000pt" viewBox="0 0 260.000000 260.000000"
 preserveAspectRatio="xMidYMid meet">
<metadata>
Created by potrace 1.11, written by Peter Selinger 2001-2013
</metadata>
<g transform="translate(0.000000,260.000000) scale(0.100000,-0.100000)"
fill="#000000" stroke="none">
<path d="M892 1784 c-6 -11 -7 -27 -1 -42 5 -13 7 -27 5 -31 -3 -4 -6 -40 -8
-80 -1 -40 -7 -75 -12 -78 -5 -4 -6 -1 -2 5 4 7 1 12 -8 12 -9 0 -16 -5 -16
-11 0 -5 -4 -7 -10 -4 -5 3 -10 30 -10 58 0 65 -14 93 -24 47 -3 -18 -6 -48
-6 -66 0 -31 -19 -50 -21 -21 0 6 -2 32 -3 57 -2 25 -8 56 -13 70 -6 14 -8 32
-6 40 3 9 0 8 -7 -3 -7 -10 -9 -21 -6 -24 10 -10 -15 -32 -30 -26 -11 4 -14
-8 -14 -62 l0 -66 -27 3 c-25 3 -28 7 -28 40 0 20 -3 40 -7 44 -9 8 -11 -5 -8
-58 1 -31 -1 -37 -14 -32 -9 3 -23 1 -30 -6 -12 -9 -17 -7 -25 8 -6 11 -7 22
-4 26 3 3 2 6 -3 6 -12 0 -38 -41 -39 -60 0 -12 101 -14 776 -15 l775 0 -4 22
c-2 12 -14 24 -27 27 -17 4 -25 14 -27 34 -4 36 -32 36 -36 0 -2 -16 -8 -29
-13 -29 -5 -1 -14 -2 -19 -3 -6 0 -15 -7 -19 -15 -12 -19 -24 4 -17 33 12 49
-48 80 -70 36 -7 -13 -10 -29 -5 -35 14 -19 6 -40 -16 -41 -13 -1 -23 3 -23 7
0 19 -2 25 -14 39 -8 8 -16 31 -20 51 -6 36 -40 89 -56 89 -12 0 -21 -38 -27
-115 -3 -38 -9 -74 -14 -80 -6 -5 -9 -4 -9 4 0 9 -8 11 -23 7 -36 -9 -50 26
-52 126 -1 84 -7 109 -22 95 -3 -4 -8 -49 -10 -100 -4 -119 -3 -115 -25 -120
-23 -6 -32 12 -26 53 3 17 1 30 -4 30 -4 0 -8 -15 -8 -34 0 -38 -21 -53 -41
-30 -10 12 -10 20 -1 34 10 16 9 18 -3 14 -12 -5 -15 3 -15 40 0 25 -4 46 -10
46 -5 0 -10 -7 -10 -15 0 -8 -5 -15 -11 -15 -7 0 -9 -10 -7 -25 3 -13 0 -26
-6 -28 -6 -2 -11 -19 -11 -38 0 -23 -5 -34 -15 -34 -11 0 -15 14 -17 54 -2 30
-7 59 -13 65 -5 5 -10 18 -10 28 0 13 -8 18 -25 18 -25 0 -25 -1 -26 -82 -1
-46 -3 -74 -6 -63 -10 46 -14 51 -24 32 -6 -9 -8 -21 -5 -26 3 -5 -5 -8 -18
-7 -19 1 -26 8 -31 34 -3 18 -10 30 -16 26 -15 -9 -39 15 -40 40 0 11 -3 16
-5 9 -4 -8 -13 -9 -30 -3 -20 8 -24 7 -24 -10 0 -24 -20 -37 -21 -13 0 10 -5
2 -11 -17 -9 -30 -11 -32 -18 -15 -6 16 -9 11 -15 -23 -6 -35 -9 -41 -21 -31
-10 8 -17 9 -28 0 -11 -9 -15 7 -25 94 -7 58 -10 109 -7 113 3 4 1 14 -3 21
-7 11 -11 9 -19 -5z"/>
<path d="M1728 1424 c-3 -5 -34 -94 -68 -199 -34 -104 -71 -202 -81 -217 l-20
-27 51 2 c27 1 50 5 50 10 0 4 -6 7 -14 7 -22 0 -27 28 -15 71 12 39 12 39 65
39 43 0 55 -4 64 -20 16 -30 18 -96 3 -92 -7 1 -13 -2 -13 -8 0 -5 32 -8 75
-7 41 1 75 4 75 6 0 2 -7 9 -15 15 -9 6 -46 105 -84 220 -38 114 -71 204 -73
200z m-4 -218 c24 -74 23 -77 -29 -75 -28 2 -44 7 -41 13 3 6 12 37 22 69 9
32 20 54 24 50 4 -4 15 -30 24 -57z"/>
<path d="M220 1407 l25 -13 1 -183 c2 -167 0 -185 -17 -202 -10 -10 -19 -21
-19 -23 0 -2 23 -4 50 -4 28 0 50 5 50 10 0 5 -4 7 -9 4 -5 -3 -15 1 -22 10
-9 11 -13 59 -14 170 0 154 6 203 19 147 13 -50 108 -344 111 -341 2 2 30 91
64 198 l60 195 1 -183 c0 -176 -1 -184 -20 -189 -42 -11 -17 -19 60 -19 77 0
102 8 60 19 -19 5 -20 14 -20 201 0 195 0 197 23 206 16 6 6 9 -44 9 l-67 1
-25 -82 c-14 -46 -33 -110 -43 -143 l-18 -60 -45 143 -45 142 -71 0 c-63 0
-67 -2 -45 -13z"/>
<path d="M806 1410 c12 -4 23 -14 26 -22 4 -11 3 -320 -1 -370 0 -10 -7 -18
-15 -18 -8 0 -17 -4 -20 -8 -3 -5 33 -9 80 -9 49 -1 82 3 78 8 -3 5 -9 7 -14
4 -5 -3 -12 0 -17 7 -8 14 -14 351 -6 381 3 10 14 22 26 27 15 6 -7 9 -68 9
-59 0 -83 -3 -69 -9z"/>
<path d="M1128 1410 c26 -11 24 6 26 -210 1 -169 0 -176 -21 -196 l-22 -20
139 0 c76 1 140 3 143 6 3 3 7 39 10 80 4 69 3 72 -9 45 -7 -16 -13 -35 -14
-41 0 -6 -11 -23 -25 -38 -19 -21 -33 -26 -69 -26 -57 0 -56 -5 -53 215 l2
169 25 13 c22 11 14 13 -65 12 -64 0 -83 -3 -67 -9z"/>
<path d="M2065 1396 c23 -23 24 -26 22 -200 -2 -172 -3 -178 -25 -195 -23 -17
-23 -17 32 -19 33 -1 56 3 56 9 0 6 -4 8 -9 5 -5 -3 -15 1 -22 10 -9 11 -13
59 -14 170 -1 152 -1 155 18 132 10 -13 21 -30 25 -39 4 -9 45 -80 92 -158
l85 -142 5 210 c5 195 6 211 25 225 19 14 16 15 -34 16 -53 0 -53 0 -31 -18
20 -16 22 -27 23 -125 1 -59 -1 -107 -4 -107 -4 0 -39 56 -79 125 l-72 125
-58 0 -59 0 24 -24z"/>
<path d="M588 913 c7 -3 16 -2 19 1 4 3 -2 6 -13 5 -11 0 -14 -3 -6 -6z"/>
<path d="M748 913 c7 -3 16 -2 19 1 4 3 -2 6 -13 5 -11 0 -14 -3 -6 -6z"/>
<path d="M1228 913 c7 -3 16 -2 19 1 4 3 -2 6 -13 5 -11 0 -14 -3 -6 -6z"/>
<path d="M2068 913 c7 -3 16 -2 19 1 4 3 -2 6 -13 5 -11 0 -14 -3 -6 -6z"/>
<path d="M2045 870 c3 -5 8 -10 11 -10 2 0 4 5 4 10 0 6 -5 10 -11 10 -5 0 -7
-4 -4 -10z"/>
<path d="M1916 853 c-7 -24 -2 -56 10 -60 5 -2 8 15 6 37 -4 44 -8 49 -16 23z"/>
<path d="M1114 835 c-13 -32 24 -63 41 -35 3 5 0 7 -8 4 -8 -3 -17 2 -20 10
-7 18 8 30 25 20 7 -4 8 -3 4 4 -10 17 -36 15 -42 -3z"/>
<path d="M1261 837 c-8 -10 -7 -18 3 -32 12 -17 13 -16 12 13 -1 37 0 36 -15
19z"/>
<path d="M1294 821 c1 -22 4 -27 13 -19 9 7 10 16 2 29 -13 26 -16 24 -15 -10z"/>
<path d="M1411 841 c-1 -8 7 -20 17 -28 16 -14 16 -14 -3 -8 -15 5 -17 3 -8
-6 6 -6 19 -9 29 -5 13 5 14 10 6 18 -6 6 -8 17 -5 24 3 8 0 14 -7 14 -6 0 -8
-4 -5 -10 3 -5 2 -10 -4 -10 -5 0 -12 6 -14 13 -4 9 -6 8 -6 -2z"/>
<path d="M1558 820 c-3 -19 0 -30 7 -30 6 0 12 14 12 30 0 17 -4 30 -8 30 -3
0 -9 -13 -11 -30z"/>
<path d="M1598 820 c2 -16 8 -30 12 -30 12 0 5 53 -7 57 -5 2 -8 -10 -5 -27z"/>
<path d="M1638 820 c2 -16 8 -30 13 -30 5 0 7 10 5 23 -3 12 -5 25 -5 30 -1 4
-5 7 -9 7 -5 0 -7 -13 -4 -30z"/>
<path d="M1764 835 c-13 -34 24 -63 42 -33 5 7 2 9 -8 5 -25 -9 -31 6 -7 19
14 7 18 14 10 18 -6 4 -11 2 -11 -3 0 -6 -5 -11 -11 -11 -5 0 -7 5 -4 10 3 6
4 10 0 10 -3 0 -8 -7 -11 -15z"/>
<path d="M2048 820 c-3 -20 0 -30 8 -30 8 0 11 9 8 27 -7 38 -11 39 -16 3z"/>
<path d="M2171 832 c-11 -21 3 -42 27 -42 10 0 10 4 -3 16 -9 9 -14 23 -11 30
8 20 -2 17 -13 -4z"/>
<path d="M2200 840 c0 -5 5 -10 11 -10 5 0 7 5 4 10 -3 6 -8 10 -11 10 -2 0
-4 -4 -4 -10z"/>
<path d="M2321 841 c-10 -7 -8 -12 10 -24 27 -19 42 -11 16 8 -13 10 -15 14
-5 18 7 3 9 6 3 6 -5 0 -16 -3 -24 -8z"/>
<path d="M2317 799 c7 -7 15 -10 18 -7 3 3 -2 9 -12 12 -14 6 -15 5 -6 -5z"/>
</g>
</svg>
