<svg width="39" height="39" viewBox="0 0 39 39" version="1.1" xmlns="http://www.w3.org/2000/svg" xmlns:xlink="http://www.w3.org/1999/xlink">
<title>pantone</title>
<desc>Created using Figma</desc>
<g id="Canvas" transform="translate(223 272)">
<g id="pantone">
<g id="Group">
<g id="Group">
<g id="Vector">
<use xlink:href="#path0_fill" transform="translate(-223 -272)" fill="#651039"/>
</g>
</g>
</g>
<g id="Group">
<g id="Group">
<g id="Vector">
<use xlink:href="#path1_fill" transform="translate(-218.851 -241.712)" fill="#651039"/>
</g>
</g>
</g>
</g>
</g>
<defs>
<path id="path0_fill" d="M 35.8883 26.1383L 33.0872 26.1383C 32.7435 26.1383 32.4649 26.4169 32.4649 26.7606C 32.4649 27.1044 32.7435 27.383 33.0872 27.383L 35.2659 27.383L 35.2659 37.7553L 29.9554 37.7553L 29.9554 28.9281C 29.9554 28.5843 29.6767 28.3058 29.333 28.3058C 28.9893 28.3058 28.7107 28.5843 28.7107 28.9281L 28.7107 37.7554L 23.4 37.7554L 23.4 32.7129C 23.4 32.3692 23.1214 32.0906 22.7777 32.0906C 22.434 32.0906 22.1553 32.3692 22.1553 32.7129L 22.1553 37.7554L 16.8446 37.7554L 16.8446 36.4975C 16.8446 36.1538 16.566 35.8752 16.2223 35.8752C 15.8786 35.8752 15.6 36.1538 15.6 36.4975L 15.6 37.7554L 12.2377 37.7554C 12.5515 37.3383 12.7623 36.8398 12.8339 36.2982L 35.1571 23.4097C 35.8746 22.9956 36.3884 22.3242 36.604 21.5195C 36.8197 20.7148 36.7104 19.8765 36.2961 19.1591L 32.9769 13.4102C 32.5627 12.6927 31.8914 12.1789 31.0867 11.9633C 30.2821 11.7476 29.4437 11.8569 28.7262 12.2712L 26.3005 13.6718C 26.0028 13.8436 25.9009 14.2243 26.0727 14.5219C 26.2446 14.8197 26.6252 14.9215 26.9228 14.7497L 28.8097 13.6603L 33.9958 22.6431L 29.3966 25.2984L 24.9829 17.6536C 24.8111 17.3558 24.4305 17.2541 24.1328 17.4258C 23.8351 17.5977 23.7332 17.9783 23.905 18.2759L 28.3187 25.9208L 23.7195 28.5761L 21.1984 24.2094C 21.0266 23.9116 20.6459 23.8099 20.3482 23.9816C 20.0506 24.1535 19.9487 24.5341 20.1205 24.8318L 22.6416 29.1985L 18.0424 31.8539L 17.4136 30.7648C 17.2417 30.467 16.8611 30.3653 16.5634 30.537C 16.2657 30.7088 16.1638 31.0895 16.3357 31.3872L 16.9645 32.4763L 12.8615 34.8451L 12.8615 34.2927L 16.8955 27.3055C 16.8958 27.3049 20.1733 21.6283 20.1733 21.6283C 20.1735 21.6279 23.451 15.9512 23.451 15.9512C 23.4511 15.951 26.7288 10.274 26.7288 10.274C 27.5867 8.78802 27.0758 6.88114 25.5898 6.02321L 19.8409 2.7041C 19.1234 2.28996 18.2852 2.18042 17.4804 2.39614C 16.6756 2.61178 16.0043 3.12564 15.5902 3.8431L 14.1897 6.26879C 14.0178 6.56647 14.1198 6.94703 14.4174 7.11895C 14.715 7.29064 15.0956 7.1888 15.2675 6.89119L 16.3568 5.00442L 25.3396 10.1906L 22.6842 14.7898L 15.0394 10.3761C 14.7417 10.2042 14.3611 10.3061 14.1892 10.6038C 14.0174 10.9015 14.1194 11.282 14.417 11.4539L 22.0618 15.8676L 19.4065 20.4668L 15.0398 17.9456C 14.742 17.7739 14.3615 17.8757 14.1896 18.1734C 14.0178 18.4711 14.1198 18.8516 14.4174 19.0235L 18.7841 21.5446L 16.1287 26.1438L 15.0396 25.515C 14.7418 25.3432 14.3614 25.4451 14.1894 25.7427C 14.0176 26.0404 14.1196 26.421 14.4172 26.5929L 15.5063 27.2217L 12.8612 31.8031L 12.8612 3.1117C 12.8617 1.39585 11.4658 0 9.75 0L 3.1117 0C 1.39585 0 0 1.39585 0 3.1117L 0 35.8883C 0 37.6041 1.39585 39 3.1117 39L 35.8883 39C 37.6041 39 39 37.6041 39 35.8883L 39 29.25C 39 27.5342 37.6041 26.1383 35.8883 26.1383ZM 29.9423 13.1326C 30.2116 13.0834 30.491 13.0921 30.7647 13.1654C 31.2483 13.2951 31.6512 13.6028 31.8992 14.0325L 35.2184 19.7814C 35.4663 20.2109 35.5315 20.7137 35.4019 21.1973C 35.3286 21.4709 35.1965 21.7173 35.0193 21.9258L 29.9423 13.1326ZM 17.0742 3.98089C 17.2827 3.80364 17.5291 3.67156 17.8027 3.59813C 18.2864 3.46871 18.7892 3.53377 19.2187 3.78178L 24.9676 7.10089C 25.6703 7.50659 26.0092 8.30312 25.8694 9.05889L 17.0742 3.98089ZM 11.617 35.8883C 11.617 36.9178 10.7795 37.7554 9.75 37.7554L 3.1117 37.7554C 2.08216 37.7554 1.24465 36.9178 1.24465 35.8883L 1.24465 3.1117C 1.24465 2.08223 2.08216 1.24465 3.1117 1.24465L 9.75 1.24465C 10.7795 1.24465 11.617 2.08223 11.617 3.1117L 11.617 35.8883ZM 37.7554 35.8883C 37.7554 36.6996 37.235 37.3914 36.5107 37.6483L 36.5107 27.49C 37.235 27.7469 37.7554 28.4387 37.7554 29.2499L 37.7554 35.8883Z"/>
<path id="path1_fill" d="M 2.28188 1.6737e-07C 1.0236 1.6737e-07 1.16229e-08 1.02367 1.16229e-08 2.28188C 1.16229e-08 3.54009 1.0236 4.56376 2.28188 4.56376C 3.54016 4.56376 4.56376 3.54009 4.56376 2.28188C 4.56384 1.02375 3.54009 1.6737e-07 2.28188 1.6737e-07ZM 2.28188 3.31919C 1.70991 3.31919 1.24465 2.85393 1.24465 2.28196C 1.24465 1.70998 1.70991 1.24472 2.28188 1.24472C 2.85386 1.24472 3.31911 1.70998 3.31911 2.28196C 3.31911 2.85393 2.85378 3.31919 2.28188 3.31919Z"/>
</defs>
</svg>
