<svg width="12" height="21" viewBox="0 0 12 21" version="1.1" xmlns="http://www.w3.org/2000/svg" xmlns:xlink="http://www.w3.org/1999/xlink">
<title>facebook-menu</title>
<desc>Created using Figma</desc>
<g id="Canvas" transform="translate(142 53)">
<g id="facebook-menu">
<use xlink:href="#path0_stroke" transform="translate(-142 -52)" fill="#FFFFFF"/>
</g>
</g>
<defs>
<path id="path0_stroke" d="M 11.2383 0.140626L 11.7383 0.140626L 11.7383 -0.290756L 11.3116 -0.353976L 11.2383 0.140626ZM 4.10156 7.13672L 4.10156 7.63672L 4.60156 7.63672L 4.60156 7.13672L 4.10156 7.13672ZM 1.11328 7.13672L 1.11328 6.63672L 0.613281 6.63672L 0.613281 7.13672L 1.11328 7.13672ZM 1.11328 10.6055L 0.613281 10.6055L 0.613281 11.1055L 1.11328 11.1055L 1.11328 10.6055ZM 4.10156 10.6055L 4.60156 10.6055L 4.60156 10.1055L 4.10156 10.1055L 4.10156 10.6055ZM 4.10156 19.5L 3.60156 19.5L 3.60156 20L 4.10156 20L 4.10156 19.5ZM 7.6875 19.5L 7.6875 20L 8.1875 20L 8.1875 19.5L 7.6875 19.5ZM 7.6875 10.6055L 7.6875 10.1055L 7.1875 10.1055L 7.1875 10.6055L 7.6875 10.6055ZM 10.6641 10.6055L 10.6641 11.1055L 11.1025 11.1055L 11.1598 10.6708L 10.6641 10.6055ZM 11.1211 7.13672L 11.6168 7.20203L 11.6913 6.63672L 11.1211 6.63672L 11.1211 7.13672ZM 7.6875 7.13672L 7.1875 7.13672L 7.1875 7.63672L 7.6875 7.63672L 7.6875 7.13672ZM 11.2383 3.23438L 11.2383 3.73438L 11.7383 3.73438L 11.7383 3.23438L 11.2383 3.23438ZM 11.3116 -0.353976C 10.98 -0.402864 9.85348 -0.49954 8.56641 -0.5L 8.56641 0.5C 9.81059 0.49954 10.8638 0.590363 11.165 0.635227L 11.3116 -0.353976ZM 8.56641 -0.5C 7.1407 -0.5 5.8877 -0.0630387 4.9896 0.82333C 4.08986 1.71132 3.60156 2.99581 3.60156 4.58203L 4.60156 4.58203C 4.60156 3.20341 5.02147 2.19689 5.69204 1.53507C 6.36426 0.871632 7.34368 0.5 8.56641 0.5L 8.56641 -0.5ZM 3.60156 4.58203L 3.60156 7.13672L 4.60156 7.13672L 4.60156 4.58203L 3.60156 4.58203ZM 4.10156 6.63672L 1.11328 6.63672L 1.11328 7.63672L 4.10156 7.63672L 4.10156 6.63672ZM 0.613281 7.13672L 0.613281 10.6055L 1.61328 10.6055L 1.61328 7.13672L 0.613281 7.13672ZM 1.11328 11.1055L 4.10156 11.1055L 4.10156 10.1055L 1.11328 10.1055L 1.11328 11.1055ZM 3.60156 10.6055L 3.60156 19.5L 4.60156 19.5L 4.60156 10.6055L 3.60156 10.6055ZM 4.10156 20L 7.6875 20L 7.6875 19L 4.10156 19L 4.10156 20ZM 8.1875 19.5L 8.1875 10.6055L 7.1875 10.6055L 7.1875 19.5L 8.1875 19.5ZM 7.6875 11.1055L 10.6641 11.1055L 10.6641 10.1055L 7.6875 10.1055L 7.6875 11.1055ZM 11.1598 10.6708L 11.6168 7.20203L 10.6254 7.0714L 10.1683 10.5402L 11.1598 10.6708ZM 11.1211 6.63672L 7.6875 6.63672L 7.6875 7.63672L 11.1211 7.63672L 11.1211 6.63672ZM 8.1875 7.13672L 8.1875 4.92187L 7.1875 4.92187L 7.1875 7.13672L 8.1875 7.13672ZM 8.1875 4.92187C 8.1875 4.44364 8.25861 4.17837 8.38671 4.0245C 8.49753 3.89138 8.7455 3.73438 9.39844 3.73438L 9.39844 2.73438C 8.60996 2.73438 8.00247 2.92308 7.61818 3.38468C 7.25116 3.82554 7.1875 4.40401 7.1875 4.92187L 8.1875 4.92187ZM 9.39844 3.73438L 11.2383 3.73438L 11.2383 2.73438L 9.39844 2.73438L 9.39844 3.73438ZM 11.7383 3.23438L 11.7383 0.140626L 10.7383 0.140626L 10.7383 3.23438L 11.7383 3.23438Z"/>
</defs>
</svg>
