<svg width="20" height="19" viewBox="0 0 20 19" version="1.1" xmlns="http://www.w3.org/2000/svg" xmlns:xlink="http://www.w3.org/1999/xlink">
<title>instagram-menu</title>
<desc>Created using Figma</desc>
<g id="Canvas" transform="translate(121 51)">
<g id="instagram-menu">
<use xlink:href="#path0_stroke" transform="translate(-120 -52)" fill="#FFFFFF"/>
</g>
</g>
<defs>
<path id="path0_stroke" d="M 14.3086 3.48047L 14.4943 3.01623L 14.4927 3.0156L 14.3086 3.48047ZM 15.3398 4.16016L 14.9863 4.51371L 14.9863 4.51371L 15.3398 4.16016ZM 16.0195 5.19141L 16.4844 5.0073L 16.4838 5.00571L 16.0195 5.19141ZM 16.0195 15.8086L 16.4838 15.9943L 16.4844 15.9927L 16.0195 15.8086ZM 15.3398 16.8398L 14.9863 16.4863L 14.9863 16.4863L 15.3398 16.8398ZM 14.3086 17.5195L 14.4927 17.9844L 14.4943 17.9838L 14.3086 17.5195ZM 3.69141 17.5195L 3.50571 17.9838L 3.5073 17.9844L 3.69141 17.5195ZM 2.66016 16.8398L 2.3066 17.1934L 2.3066 17.1934L 2.66016 16.8398ZM 1.98047 15.8086L 1.5156 15.9927L 1.51623 15.9943L 1.98047 15.8086ZM 1.98047 5.19141L 1.51623 5.00571L 1.5156 5.0073L 1.98047 5.19141ZM 2.66016 4.16016L 3.01371 4.51371L 3.01371 4.51371L 2.66016 4.16016ZM 3.69141 3.48047L 3.5073 3.0156L 3.50571 3.01623L 3.69141 3.48047ZM 17.9414 6.78516L 17.442 6.80952L 17.4422 6.81341L 17.9414 6.78516ZM 16.4883 3.01172L 16.1347 3.36527L 16.1347 3.36527L 16.4883 3.01172ZM 12.7148 1.55859L 12.6866 2.05781L 12.6905 2.058L 12.7148 1.55859ZM 5.28516 1.55859L 5.30952 2.05801L 5.31341 2.05779L 5.28516 1.55859ZM 1.51172 3.01172L 1.86527 3.36527L 1.86527 3.36527L 1.51172 3.01172ZM 0.0585938 6.78516L 0.55781 6.81341L 0.558 6.80952L 0.0585938 6.78516ZM 0.0585938 14.2148L 0.558015 14.1905L 0.557795 14.1866L 0.0585938 14.2148ZM 1.51172 17.9883L 1.15817 18.3418L 1.51172 17.9883ZM 5.28516 19.4414L 5.31341 18.9422L 5.30952 18.942L 5.28516 19.4414ZM 12.7148 19.4414L 12.6905 18.942L 12.6866 18.9422L 12.7148 19.4414ZM 16.4883 17.9883L 16.1347 17.6347L 16.4883 17.9883ZM 17.9414 14.2148L 17.4422 14.1866L 17.442 14.1905L 17.9414 14.2148ZM 11.5 10.5C 11.5 11.8762 10.3762 13 9 13L 9 14C 10.9285 14 12.5 12.4285 12.5 10.5L 11.5 10.5ZM 9 13C 7.6238 13 6.5 11.8762 6.5 10.5L 5.5 10.5C 5.5 12.4285 7.07151 14 9 14L 9 13ZM 6.5 10.5C 6.5 9.1238 7.6238 8 9 8L 9 7C 7.07151 7 5.5 8.57151 5.5 10.5L 6.5 10.5ZM 9 8C 10.3762 8 11.5 9.1238 11.5 10.5L 12.5 10.5C 12.5 8.57151 10.9285 7 9 7L 9 8ZM 14.1172 10.5C 14.1172 7.66917 11.8308 5.38281 9 5.38281L 9 6.38281C 11.2785 6.38281 13.1172 8.22146 13.1172 10.5L 14.1172 10.5ZM 9 5.38281C 6.16917 5.38281 3.88281 7.66917 3.88281 10.5L 4.88281 10.5C 4.88281 8.22146 6.72145 6.38281 9 6.38281L 9 5.38281ZM 3.88281 10.5C 3.88281 13.3308 6.16917 15.6172 9 15.6172L 9 14.6172C 6.72145 14.6172 4.88281 12.7785 4.88281 10.5L 3.88281 10.5ZM 9 15.6172C 11.8308 15.6172 14.1172 13.3308 14.1172 10.5L 13.1172 10.5C 13.1172 12.7785 11.2785 14.6172 9 14.6172L 9 15.6172ZM 15.3828 5.69531C 15.3828 4.82151 14.6785 4.11719 13.8047 4.11719L 13.8047 5.11719C 14.1262 5.11719 14.3828 5.3738 14.3828 5.69531L 15.3828 5.69531ZM 13.8047 4.11719C 12.9309 4.11719 12.2266 4.82151 12.2266 5.69531L 13.2266 5.69531C 13.2266 5.3738 13.4832 5.11719 13.8047 5.11719L 13.8047 4.11719ZM 12.2266 5.69531C 12.2266 6.56911 12.9309 7.27344 13.8047 7.27344L 13.8047 6.27344C 13.4832 6.27344 13.2266 6.01683 13.2266 5.69531L 12.2266 5.69531ZM 13.8047 7.27344C 14.6785 7.27344 15.3828 6.56911 15.3828 5.69531L 14.3828 5.69531C 14.3828 6.01683 14.1262 6.27344 13.8047 6.27344L 13.8047 7.27344ZM 9 3.61719C 9.66264 3.61715 10.686 3.59082 11.6868 3.6228C 12.7114 3.65532 13.6253 3.74765 14.1245 3.94534L 14.4927 3.0156C 13.8083 2.74454 12.7242 2.65522 11.7185 2.6233C 10.689 2.59082 9.64986 2.61723 9 2.61719L 9 3.61719ZM 14.1229 3.94471C 14.488 4.08808 14.7082 4.23183 14.9863 4.51371L 15.6934 3.8066C 15.3387 3.45567 14.9495 3.20099 14.4943 3.01623L 14.1229 3.94471ZM 14.9863 4.51371C 15.2682 4.79183 15.4119 5.01205 15.5553 5.3771L 16.4838 5.00571C 16.299 4.55045 16.0443 4.1613 15.6934 3.8066L 14.9863 4.51371ZM 15.5547 5.37551C 15.7524 5.87468 15.8447 6.78861 15.8772 7.81323C 15.9092 8.81404 15.8829 9.83736 15.8828 10.5L 16.8828 10.5C 16.8828 9.85014 16.9092 8.81096 16.8767 7.7815C 16.8448 6.77584 16.7555 5.69173 16.4844 5.0073L 15.5547 5.37551ZM 15.8828 10.5C 15.8829 11.1626 15.9092 12.186 15.8772 13.1868C 15.8447 14.2114 15.7524 15.1253 15.5547 15.6245L 16.4844 15.9927C 16.7555 15.3083 16.8448 14.2242 16.8767 13.2185C 16.9092 12.189 16.8828 11.1499 16.8828 10.5L 15.8828 10.5ZM 15.5553 15.6229C 15.4119 15.988 15.2682 16.2082 14.9863 16.4863L 15.6934 17.1934C 16.0443 16.8387 16.299 16.4495 16.4838 15.9943L 15.5553 15.6229ZM 14.9863 16.4863C 14.7082 16.7682 14.488 16.9119 14.1229 17.0553L 14.4943 17.9838C 14.9495 17.799 15.3387 17.5443 15.6934 17.1934L 14.9863 16.4863ZM 14.1245 17.0547C 13.6253 17.2524 12.7114 17.3447 11.6868 17.3772C 10.686 17.4092 9.66264 17.3829 9 17.3828L 9 18.3828C 9.64986 18.3828 10.689 18.4092 11.7185 18.3767C 12.7242 18.3448 13.8083 18.2555 14.4927 17.9844L 14.1245 17.0547ZM 9 17.3828C 8.33736 17.3829 7.31404 17.4092 6.31323 17.3772C 5.28861 17.3447 4.37468 17.2524 3.87551 17.0547L 3.5073 17.9844C 4.19173 18.2555 5.27584 18.3448 6.2815 18.3767C 7.31096 18.4092 8.35014 18.3828 9 18.3828L 9 17.3828ZM 3.8771 17.0553C 3.51205 16.9119 3.29183 16.7682 3.01371 16.4863L 2.3066 17.1934C 2.6613 17.5443 3.05045 17.799 3.50571 17.9838L 3.8771 17.0553ZM 3.01371 16.4863C 2.73183 16.2082 2.58808 15.988 2.44471 15.6229L 1.51623 15.9943C 1.70099 16.4495 1.95567 16.8387 2.3066 17.1934L 3.01371 16.4863ZM 2.44534 15.6245C 2.24765 15.1253 2.15532 14.2114 2.1228 13.1868C 2.09082 12.186 2.11715 11.1626 2.11719 10.5L 1.11719 10.5C 1.11723 11.1499 1.09082 12.189 1.1233 13.2185C 1.15522 14.2242 1.24454 15.3083 1.5156 15.9927L 2.44534 15.6245ZM 2.11719 10.5C 2.11715 9.83736 2.09082 8.81404 2.1228 7.81323C 2.15532 6.78861 2.24765 5.87468 2.44534 5.37551L 1.5156 5.0073C 1.24454 5.69173 1.15522 6.77584 1.1233 7.7815C 1.09082 8.81096 1.11723 9.85014 1.11719 10.5L 2.11719 10.5ZM 2.44471 5.3771C 2.58808 5.01205 2.73183 4.79183 3.01371 4.51371L 2.3066 3.8066C 1.95567 4.1613 1.70099 4.55045 1.51623 5.00571L 2.44471 5.3771ZM 3.01371 4.51371C 3.29183 4.23183 3.51205 4.08808 3.8771 3.94471L 3.50571 3.01623C 3.05045 3.20099 2.6613 3.45567 2.3066 3.8066L 3.01371 4.51371ZM 3.87551 3.94534C 4.37468 3.74765 5.28861 3.65532 6.31323 3.6228C 7.31404 3.59082 8.33736 3.61715 9 3.61719L 9 2.61719C 8.35014 2.61723 7.31096 2.59082 6.2815 2.6233C 5.27584 2.65522 4.19173 2.74454 3.5073 3.0156L 3.87551 3.94534ZM 18.5 10.5C 18.5 9.26019 18.5116 8.01559 18.4406 6.7569L 17.4422 6.81341C 17.5119 8.0391 17.5 9.25543 17.5 10.5L 18.5 10.5ZM 18.4408 6.7608C 18.3674 5.25661 18.0197 3.83606 16.8418 2.65817L 16.1347 3.36527C 17.0662 4.29675 17.3748 5.43089 17.442 6.80952L 18.4408 6.7608ZM 16.8418 2.65817C 15.6639 1.48027 14.2434 1.13256 12.7392 1.05919L 12.6905 2.058C 14.0691 2.12525 15.2033 2.4338 16.1347 3.36527L 16.8418 2.65817ZM 12.7431 1.05939C 11.4844 0.988419 10.2398 1.00001 9 1L 9 2C 10.2446 1.99999 11.4609 1.98814 12.6866 2.05779L 12.7431 1.05939ZM 9 1C 7.76019 1.00001 6.51559 0.988419 5.2569 1.05939L 5.31341 2.05779C 6.5391 1.98814 7.75543 1.99999 9 2L 9 1ZM 5.2608 1.05919C 3.75661 1.13256 2.33606 1.48027 1.15817 2.65817L 1.86527 3.36527C 2.79675 2.4338 3.93089 2.12525 5.30952 2.058L 5.2608 1.05919ZM 1.15817 2.65817C -0.0197333 3.83606 -0.367438 5.25661 -0.440812 6.7608L 0.558 6.80952C 0.62525 5.43089 0.933796 4.29675 1.86527 3.36527L 1.15817 2.65817ZM -0.440607 6.7569C -0.511581 8.01559 -0.499994 9.26019 -0.5 10.5L 0.5 10.5C 0.499994 9.25543 0.488143 8.0391 0.557795 6.81341L -0.440607 6.7569ZM -0.5 10.5C -0.499994 11.7398 -0.511581 12.9844 -0.440607 14.2431L 0.557795 14.1866C 0.488143 12.9609 0.499994 11.7446 0.5 10.5L -0.5 10.5ZM -0.440812 14.2392C -0.367437 15.7434 -0.0197333 17.1639 1.15817 18.3418L 1.86527 17.6347C 0.933796 16.7033 0.62525 15.5691 0.558 14.1905L -0.440812 14.2392ZM 1.15817 18.3418C 2.33606 19.5197 3.75661 19.8674 5.2608 19.9408L 5.30952 18.942C 3.93089 18.8747 2.79675 18.5662 1.86527 17.6347L 1.15817 18.3418ZM 5.2569 19.9406C 6.51559 20.0116 7.76019 20 9 20L 9 19C 7.75543 19 6.5391 19.0119 5.31341 18.9422L 5.2569 19.9406ZM 9 20C 10.2398 20 11.4844 20.0116 12.7431 19.9406L 12.6866 18.9422C 11.4609 19.0119 10.2446 19 9 19L 9 20ZM 12.7392 19.9408C 14.2434 19.8674 15.6639 19.5197 16.8418 18.3418L 16.1347 17.6347C 15.2033 18.5662 14.0691 18.8747 12.6905 18.942L 12.7392 19.9408ZM 16.8418 18.3418C 18.0197 17.1639 18.3674 15.7434 18.4408 14.2392L 17.442 14.1905C 17.3748 15.5691 17.0662 16.7033 16.1347 17.6347L 16.8418 18.3418ZM 18.4406 14.2431C 18.5116 12.9844 18.5 11.7398 18.5 10.5L 17.5 10.5C 17.5 11.7446 17.5119 12.9609 17.4422 14.1866L 18.4406 14.2431Z"/>
</defs>
</svg>
