<svg width="21" height="21" viewBox="0 0 21 21" version="1.1" xmlns="http://www.w3.org/2000/svg" xmlns:xlink="http://www.w3.org/1999/xlink">
<title>instagram</title>
<desc>Created using Figma</desc>
<g id="Canvas" transform="translate(133 420)">
<g id="instagram">
<use xlink:href="#path0_fill" transform="translate(-133 -422)" fill="#651039"/>
</g>
</g>
<defs>
<path id="path0_fill" d="M 13.7143 12.4286C 13.7143 14.317 12.1741 15.8571 10.2857 15.8571C 8.39732 15.8571 6.85714 14.317 6.85714 12.4286C 6.85714 10.5402 8.39732 9 10.2857 9C 12.1741 9 13.7143 10.5402 13.7143 12.4286ZM 15.5625 12.4286C 15.5625 9.50893 13.2054 7.15179 10.2857 7.15179C 7.36607 7.15179 5.00893 9.50893 5.00893 12.4286C 5.00893 15.3482 7.36607 17.7054 10.2857 17.7054C 13.2054 17.7054 15.5625 15.3482 15.5625 12.4286ZM 17.0089 6.9375C 17.0089 6.25446 16.4598 5.70536 15.7768 5.70536C 15.0938 5.70536 14.5446 6.25446 14.5446 6.9375C 14.5446 7.62054 15.0938 8.16964 15.7768 8.16964C 16.4598 8.16964 17.0089 7.62054 17.0089 6.9375ZM 10.2857 3.99107C 11.7857 3.99107 15 3.87054 16.3527 4.40625C 16.8214 4.59375 17.1696 4.82143 17.5312 5.18304C 17.8929 5.54464 18.1205 5.89286 18.308 6.36161C 18.8438 7.71429 18.7232 10.9286 18.7232 12.4286C 18.7232 13.9286 18.8438 17.1429 18.308 18.4955C 18.1205 18.9643 17.8929 19.3125 17.5312 19.6741C 17.1696 20.0357 16.8214 20.2634 16.3527 20.4509C 15 20.9866 11.7857 20.8661 10.2857 20.8661C 8.78571 20.8661 5.57143 20.9866 4.21875 20.4509C 3.75 20.2634 3.40179 20.0357 3.04018 19.6741C 2.67857 19.3125 2.45089 18.9643 2.26339 18.4955C 1.72768 17.1429 1.84821 13.9286 1.84821 12.4286C 1.84821 10.9286 1.72768 7.71429 2.26339 6.36161C 2.45089 5.89286 2.67857 5.54464 3.04018 5.18304C 3.40179 4.82143 3.75 4.59375 4.21875 4.40625C 5.57143 3.87054 8.78571 3.99107 10.2857 3.99107ZM 20.5714 12.4286C 20.5714 11.0089 20.5848 9.60268 20.5045 8.18304C 20.4241 6.53571 20.0491 5.07589 18.8438 3.87054C 17.6384 2.66518 16.1786 2.29018 14.5312 2.20982C 13.1116 2.12946 11.7054 2.14286 10.2857 2.14286C 8.86607 2.14286 7.45982 2.12946 6.04018 2.20982C 4.39286 2.29018 2.93304 2.66518 1.72768 3.87054C 0.522321 5.07589 0.147321 6.53571 0.0669643 8.18304C -0.0133929 9.60268 0 11.0089 0 12.4286C 0 13.8482 -0.0133929 15.2545 0.0669643 16.6741C 0.147321 18.3214 0.522321 19.7812 1.72768 20.9866C 2.93304 22.192 4.39286 22.567 6.04018 22.6473C 7.45982 22.7277 8.86607 22.7143 10.2857 22.7143C 11.7054 22.7143 13.1116 22.7277 14.5312 22.6473C 16.1786 22.567 17.6384 22.192 18.8438 20.9866C 20.0491 19.7812 20.4241 18.3214 20.5045 16.6741C 20.5848 15.2545 20.5714 13.8482 20.5714 12.4286Z"/>
</defs>
</svg>
