<svg width="10" height="14" viewBox="0 0 10 14" version="1.1" xmlns="http://www.w3.org/2000/svg" xmlns:xlink="http://www.w3.org/1999/xlink">
<title>map-menu</title>
<desc>Created using Figma</desc>
<g id="Canvas" transform="translate(203 49)">
<g id="map-menu">
<use xlink:href="#path0_stroke" transform="translate(-202 -49)" fill="#FFFFFF"/>
</g>
</g>
<defs>
<path id="path0_stroke" d="M 0.257813 6.39844L 0.71005 6.18517L 0.709849 6.18475L 0.257813 6.39844ZM 3.10938 12.4453L 3.5646 12.2384L 3.56161 12.232L 3.10938 12.4453ZM 4.89844 12.4453L 5.34969 12.6607L 5.3509 12.6581L 4.89844 12.4453ZM 7.74219 6.39844L 7.29015 6.18475L 7.28973 6.18565L 7.74219 6.39844ZM 5.5 5C 5.5 5.82542 4.82542 6.5 4 6.5L 4 7.5C 5.3777 7.5 6.5 6.37771 6.5 5L 5.5 5ZM 4 6.5C 3.17458 6.5 2.5 5.82542 2.5 5L 1.5 5C 1.5 6.37771 2.6223 7.5 4 7.5L 4 6.5ZM 2.5 5C 2.5 4.17458 3.17458 3.5 4 3.5L 4 2.5C 2.6223 2.5 1.5 3.6223 1.5 5L 2.5 5ZM 4 3.5C 4.82542 3.5 5.5 4.17458 5.5 5L 6.5 5C 6.5 3.6223 5.3777 2.5 4 2.5L 4 3.5ZM 8.5 5C 8.5 2.51292 6.48708 0.5 4 0.5L 4 1.5C 5.9348 1.5 7.5 3.0652 7.5 5L 8.5 5ZM 4 0.5C 1.51292 0.5 -0.5 2.51292 -0.5 5L 0.5 5C 0.5 3.0652 2.0652 1.5 4 1.5L 4 0.5ZM -0.5 5C -0.499235 5.50421 -0.426372 6.10506 -0.194224 6.61213L 0.709849 6.18475C 0.535747 5.83244 0.499235 5.44891 0.5 5L -0.5 5ZM -0.194425 6.6117L 2.65714 12.6586L 3.56161 12.232L 0.71005 6.18517L -0.194425 6.6117ZM 2.65419 12.6522C 2.89884 13.1904 3.4471 13.5 4 13.5L 4 12.5C 3.8029 12.5 3.63241 12.3877 3.56456 12.2384L 2.65419 12.6522ZM 4 13.5C 4.55496 13.5 5.09727 13.1895 5.34968 12.6607L 4.4472 12.2299C 4.37148 12.3886 4.19504 12.5 4 12.5L 4 13.5ZM 5.3509 12.6581L 8.19465 6.61122L 7.28973 6.18565L 4.44598 12.2325L 5.3509 12.6581ZM 8.19422 6.61213C 8.42637 6.10506 8.49924 5.50421 8.5 5L 7.5 5C 7.50077 5.44891 7.46425 5.83244 7.29015 6.18475L 8.19422 6.61213Z"/>
</defs>
</svg>
