<svg width="19" height="21" viewBox="0 0 19 21" version="1.1" xmlns="http://www.w3.org/2000/svg" xmlns:xlink="http://www.w3.org/1999/xlink">
<title>calendar</title>
<desc>Created using Figma</desc>
<g id="Canvas" transform="translate(131 145)">
<g id="calendar">
<g id="Rectangle 5">
<mask id="mask0_outline_ins">
<use xlink:href="#path0_fill" fill="white" transform="translate(-128 -137)"/>
</mask>
<g mask="url(#mask0_outline_ins)">
<use xlink:href="#path1_stroke_2x" transform="translate(-128 -137)" fill="#FFFFFF"/>
</g>
</g>
<g id="Rectangle 8">
<mask id="mask1_outline_ins">
<use xlink:href="#path2_fill" fill="white" transform="translate(-125 -136)"/>
</mask>
<g mask="url(#mask1_outline_ins)">
<use xlink:href="#path3_stroke_2x" transform="translate(-125 -136)" fill="#FFFFFF"/>
</g>
</g>
<g id="Rectangle 9">
<mask id="mask2_outline_ins">
<use xlink:href="#path2_fill" fill="white" transform="translate(-122 -136)"/>
</mask>
<g mask="url(#mask2_outline_ins)">
<use xlink:href="#path3_stroke_2x" transform="translate(-122 -136)" fill="#FFFFFF"/>
</g>
</g>
<g id="Rectangle 10">
<mask id="mask3_outline_ins">
<use xlink:href="#path2_fill" fill="white" transform="translate(-119 -136)"/>
</mask>
<g mask="url(#mask3_outline_ins)">
<use xlink:href="#path3_stroke_2x" transform="translate(-119 -136)" fill="#FFFFFF"/>
</g>
</g>
<g id="Rectangle 11">
<mask id="mask4_outline_ins">
<use xlink:href="#path4_fill" fill="white" transform="translate(-127 -134)"/>
</mask>
<g mask="url(#mask4_outline_ins)">
<use xlink:href="#path5_stroke_2x" transform="translate(-127 -134)" fill="#FFFFFF"/>
</g>
</g>
<g id="Rectangle 12">
<mask id="mask5_outline_ins">
<use xlink:href="#path4_fill" fill="white" transform="translate(-127 -131)"/>
</mask>
<g mask="url(#mask5_outline_ins)">
<use xlink:href="#path5_stroke_2x" transform="translate(-127 -131)" fill="#FFFFFF"/>
</g>
</g>
<g id="Rectangle 13">
<mask id="mask6_outline_ins">
<use xlink:href="#path6_fill" fill="white" transform="translate(-130 -140)"/>
</mask>
<g mask="url(#mask6_outline_ins)">
<use xlink:href="#path7_stroke_2x" transform="translate(-130 -140)" fill="#FFFFFF"/>
</g>
</g>
<g id="Rectangle 14">
<mask id="mask7_outline_ins">
<use xlink:href="#path8_fill" fill="white" transform="translate(-113 -144)"/>
</mask>
<g mask="url(#mask7_outline_ins)">
<use xlink:href="#path9_stroke_2x" transform="translate(-113 -144)" fill="#FFFFFF"/>
</g>
</g>
<g id="Rectangle 15">
<mask id="mask8_outline_ins">
<use xlink:href="#path8_fill" fill="white" transform="translate(-131 -144)"/>
</mask>
<g mask="url(#mask8_outline_ins)">
<use xlink:href="#path9_stroke_2x" transform="translate(-131 -144)" fill="#FFFFFF"/>
</g>
</g>
<g id="Rectangle 16">
<mask id="mask9_outline_ins">
<use xlink:href="#path6_fill" fill="white" transform="translate(-130 -125)"/>
</mask>
<g mask="url(#mask9_outline_ins)">
<use xlink:href="#path7_stroke_2x" transform="translate(-130 -125)" fill="#FFFFFF"/>
</g>
</g>
<g id="Rectangle 17">
<mask id="mask10_outline_ins">
<use xlink:href="#path10_fill" fill="white" transform="translate(-116 -144)"/>
</mask>
<g mask="url(#mask10_outline_ins)">
<use xlink:href="#path11_stroke_2x" transform="translate(-116 -144)" fill="#FFFFFF"/>
</g>
</g>
<g id="Rectangle 18">
<mask id="mask11_outline_ins">
<use xlink:href="#path12_fill" fill="white" transform="translate(-119 -145)"/>
</mask>
<g mask="url(#mask11_outline_ins)">
<use xlink:href="#path13_stroke_2x" transform="translate(-119 -145)" fill="#FFFFFF"/>
</g>
</g>
<g id="Rectangle 19">
<mask id="mask12_outline_ins">
<use xlink:href="#path12_fill" fill="white" transform="translate(-127 -145)"/>
</mask>
<g mask="url(#mask12_outline_ins)">
<use xlink:href="#path13_stroke_2x" transform="translate(-127 -145)" fill="#FFFFFF"/>
</g>
</g>
<g id="Rectangle 20">
<mask id="mask13_outline_ins">
<use xlink:href="#path14_fill" fill="white" transform="translate(-124 -144)"/>
</mask>
<g mask="url(#mask13_outline_ins)">
<use xlink:href="#path15_stroke_2x" transform="translate(-124 -144)" fill="#FFFFFF"/>
</g>
</g>
<g id="Rectangle 21">
<mask id="mask14_outline_ins">
<use xlink:href="#path10_fill" fill="white" transform="translate(-130 -144)"/>
</mask>
<g mask="url(#mask14_outline_ins)">
<use xlink:href="#path11_stroke_2x" transform="translate(-130 -144)" fill="#FFFFFF"/>
</g>
</g>
</g>
</g>
<defs>
<path id="path0_fill" d="M 0 0L 13 0L 13 10L 0 10L 0 0Z"/>
<path id="path1_stroke_2x" d="M 0 0L 0 -1L -1 -1L -1 0L 0 0ZM 13 0L 14 0L 14 -1L 13 -1L 13 0ZM 13 10L 13 11L 14 11L 14 10L 13 10ZM 0 10L -1 10L -1 11L 0 11L 0 10ZM 0 1L 13 1L 13 -1L 0 -1L 0 1ZM 12 0L 12 10L 14 10L 14 0L 12 0ZM 13 9L 0 9L 0 11L 13 11L 13 9ZM 1 10L 1 0L -1 0L -1 10L 1 10Z"/>
<path id="path2_fill" d="M 0 0L 1 0L 1 8L 0 8L 0 0Z"/>
<path id="path3_stroke_2x" d="M 0 0L 0 -1L -1 -1L -1 0L 0 0ZM 1 0L 2 0L 2 -1L 1 -1L 1 0ZM 1 8L 1 9L 2 9L 2 8L 1 8ZM 0 8L -1 8L -1 9L 0 9L 0 8ZM 0 1L 1 1L 1 -1L 0 -1L 0 1ZM 0 0L 0 8L 2 8L 2 0L 0 0ZM 1 7L 0 7L 0 9L 1 9L 1 7ZM 1 8L 1 0L -1 0L -1 8L 1 8Z"/>
<path id="path4_fill" d="M 0 0L 11 0L 11 1L 0 1L 0 0Z"/>
<path id="path5_stroke_2x" d="M 0 0L 0 -1L -1 -1L -1 0L 0 0ZM 11 0L 12 0L 12 -1L 11 -1L 11 0ZM 11 1L 11 2L 12 2L 12 1L 11 1ZM 0 1L -1 1L -1 2L 0 2L 0 1ZM 0 1L 11 1L 11 -1L 0 -1L 0 1ZM 10 0L 10 1L 12 1L 12 0L 10 0ZM 11 0L 0 0L 0 2L 11 2L 11 0ZM 1 1L 1 0L -1 0L -1 1L 1 1Z"/>
<path id="path6_fill" d="M 0 0L 17 0L 17 1L 0 1L 0 0Z"/>
<path id="path7_stroke_2x" d="M 0 0L 0 -1L -1 -1L -1 0L 0 0ZM 17 0L 18 0L 18 -1L 17 -1L 17 0ZM 17 1L 17 2L 18 2L 18 1L 17 1ZM 0 1L -1 1L -1 2L 0 2L 0 1ZM 0 1L 17 1L 17 -1L 0 -1L 0 1ZM 16 0L 16 1L 18 1L 18 0L 16 0ZM 17 0L 0 0L 0 2L 17 2L 17 0ZM 1 1L 1 0L -1 0L -1 1L 1 1Z"/>
<path id="path8_fill" d="M 0 0L 1 0L 1 20L 0 20L 0 0Z"/>
<path id="path9_stroke_2x" d="M 0 0L 0 -1L -1 -1L -1 0L 0 0ZM 1 0L 2 0L 2 -1L 1 -1L 1 0ZM 1 20L 1 21L 2 21L 2 20L 1 20ZM 0 20L -1 20L -1 21L 0 21L 0 20ZM 0 1L 1 1L 1 -1L 0 -1L 0 1ZM 0 0L 0 20L 2 20L 2 0L 0 0ZM 1 19L 0 19L 0 21L 1 21L 1 19ZM 1 20L 1 0L -1 0L -1 20L 1 20Z"/>
<path id="path10_fill" d="M 0 0L 3 0L 3 1L 0 1L 0 0Z"/>
<path id="path11_stroke_2x" d="M 0 0L 0 -1L -1 -1L -1 0L 0 0ZM 3 0L 4 0L 4 -1L 3 -1L 3 0ZM 3 1L 3 2L 4 2L 4 1L 3 1ZM 0 1L -1 1L -1 2L 0 2L 0 1ZM 0 1L 3 1L 3 -1L 0 -1L 0 1ZM 2 0L 2 1L 4 1L 4 0L 2 0ZM 3 0L 0 0L 0 2L 3 2L 3 0ZM 1 1L 1 0L -1 0L -1 1L 1 1Z"/>
<path id="path12_fill" d="M 0 0L 3 0L 3 4L 0 4L 0 0Z"/>
<path id="path13_stroke_2x" d="M 0 0L 0 -1L -1 -1L -1 0L 0 0ZM 3 0L 4 0L 4 -1L 3 -1L 3 0ZM 3 4L 3 5L 4 5L 4 4L 3 4ZM 0 4L -1 4L -1 5L 0 5L 0 4ZM 0 1L 3 1L 3 -1L 0 -1L 0 1ZM 2 0L 2 4L 4 4L 4 0L 2 0ZM 3 3L 0 3L 0 5L 3 5L 3 3ZM 1 4L 1 0L -1 0L -1 4L 1 4Z"/>
<path id="path14_fill" d="M 0 0L 5 0L 5 1L 0 1L 0 0Z"/>
<path id="path15_stroke_2x" d="M 0 0L 0 -1L -1 -1L -1 0L 0 0ZM 5 0L 6 0L 6 -1L 5 -1L 5 0ZM 5 1L 5 2L 6 2L 6 1L 5 1ZM 0 1L -1 1L -1 2L 0 2L 0 1ZM 0 1L 5 1L 5 -1L 0 -1L 0 1ZM 4 0L 4 1L 6 1L 6 0L 4 0ZM 5 0L 0 0L 0 2L 5 2L 5 0ZM 1 1L 1 0L -1 0L -1 1L 1 1Z"/>
</defs>
</svg>
