<svg width="24" height="15" viewBox="0 0 24 15" version="1.1" xmlns="http://www.w3.org/2000/svg" xmlns:xlink="http://www.w3.org/1999/xlink">
<title>vk-menu</title>
<desc>Created using Figma</desc>
<g id="Canvas" transform="translate(175 48)">
<g id="vk-menu">
<use xlink:href="#path0_stroke" transform="translate(-174 -52)" fill="#FFFFFF"/>
</g>
</g>
<defs>
<path id="path0_stroke" d="M 22.4648 6.09375L 21.9929 6.25894L 21.9953 6.26554L 22.4648 6.09375ZM 21.2812 5.75391L 21.2847 6.25389L 21.3145 6.25369L 21.344 6.24996L 21.2812 5.75391ZM 17.9063 5.77734L 17.8387 6.27276L 17.874 6.27758L 17.9097 6.27733L 17.9063 5.77734ZM 17.4609 5.84766L 17.695 6.28969L 17.7061 6.28344L 17.4609 5.84766ZM 17.168 6.21094L 17.6342 6.39202L 17.6379 6.38181L 17.168 6.21094ZM 15.9141 8.84766L 16.3452 9.10083L 16.3472 9.09752L 15.9141 8.84766ZM 13.5586 11.3789L 13.836 10.9628L 13.8259 10.9564L 13.5586 11.3789ZM 12.3984 5.32031L 12.5161 4.83429L 12.5086 4.83259L 12.3984 5.32031ZM 10.8164 5.16797L 10.8226 4.668L 10.8213 4.66799L 10.8164 5.16797ZM 8.01563 5.44922L 8.23376 5.89913L 8.23556 5.89825L 8.01563 5.44922ZM 7.51172 6.08203L 7.58972 5.58801L 7.5778 5.58642L 7.51172 6.08203ZM 8.50781 6.58594L 8.93471 6.32563L 8.92289 6.30625L 8.90936 6.28801L 8.50781 6.58594ZM 8.84766 8.12109L 9.34717 8.09903L 9.34716 8.09889L 8.84766 8.12109ZM 8.37891 11.4023L 8.61596 11.8426L 8.62745 11.8364L 8.63861 11.8296L 8.37891 11.4023ZM 5.95312 8.82422L 6.40293 8.60587L 6.39582 8.59122L 6.38777 8.57707L 5.95312 8.82422ZM 4.74609 6.31641L 4.27877 6.49443L 4.28214 6.50282L 4.74609 6.31641ZM 4.46484 5.94141L 4.15787 6.33608L 4.16947 6.3451L 4.18158 6.35343L 4.46484 5.94141ZM 3.94922 5.73047L 4.02525 5.23628L 3.98564 5.23019L 3.94557 5.23048L 3.94922 5.73047ZM 0.738281 5.75391L 0.738281 6.25392L 0.741931 6.25389L 0.738281 5.75391ZM 0.0703125 5.97656L 0.43508 6.31853L 0.4496 6.30305L 0.462754 6.28638L 0.0703125 5.97656ZM 0.0585938 6.55078L -0.401698 6.74606L -0.401498 6.74653L 0.0585938 6.55078ZM 5.42578 15.3984L 5.78701 15.0527L 5.78499 15.0506L 5.42578 15.3984ZM 11.0039 17.9414L 11.0039 17.4414L 10.9881 17.4414L 10.9723 17.4424L 11.0039 17.9414ZM 12.3516 17.9414L 12.3516 18.4414L 12.373 18.4414L 12.3943 18.4396L 12.3516 17.9414ZM 12.9727 17.6836L 13.3356 18.0275L 13.3411 18.0217L 13.3464 18.0158L 12.9727 17.6836ZM 13.1484 17.0859L 12.6484 17.0924L 12.6487 17.1011L 13.1484 17.0859ZM 13.9688 15.0117L 13.8188 14.5347L 13.8166 14.5354L 13.9688 15.0117ZM 16.9688 17.5312L 16.6855 17.9433L 16.6862 17.9438L 16.9688 17.5312ZM 18.4687 17.9883L 18.4609 17.4883L 18.4154 17.4891L 18.3707 17.498L 18.4687 17.9883ZM 21.4688 17.9414L 21.465 17.4414L 21.4609 17.4415L 21.4688 17.9414ZM 22.3008 16.6172L 21.8637 16.86L 21.8667 16.8653L 22.3008 16.6172ZM 20.0625 14.0273L 19.7217 14.3933L 19.7223 14.3937L 20.0625 14.0273ZM 20.707 9.53906L 21.1067 9.83956L 21.1067 9.83947L 20.707 9.53906ZM 22.4648 6.09375C 22.9368 5.92858 22.9366 5.92811 22.9364 5.92764C 22.9364 5.92748 22.9362 5.927 22.9361 5.92668C 22.936 5.92636 22.9356 5.9254 22.9354 5.92474C 22.9352 5.92406 22.9345 5.92208 22.9339 5.92071C 22.9334 5.91921 22.9318 5.91504 22.9307 5.91203C 22.9293 5.90855 22.9256 5.89936 22.9227 5.8924C 22.9189 5.88359 22.909 5.86208 22.9002 5.84477C 22.8876 5.82066 22.8558 5.76746 22.8239 5.72336C 22.7734 5.65729 22.6513 5.5351 22.5126 5.44674C 22.222 5.27239 21.8051 5.18369 21.2185 5.25785L 21.344 6.24996C 21.777 6.19521 21.9518 6.27643 21.9981 6.30423C 22.0279 6.31695 22.0347 6.33947 22.0227 6.32168C 22.0233 6.32385 22.0117 6.30398 22.0114 6.30295C 22.0137 6.3077 22.0019 6.28263 22.0028 6.28464C 22.0043 6.2882 21.9973 6.27107 21.998 6.27278C 21.9988 6.2749 21.9951 6.26507 21.9955 6.26612C 21.9959 6.26727 21.994 6.26202 21.9942 6.26259C 21.9944 6.26319 21.9935 6.26048 21.9936 6.26077C 21.9935 6.26047 21.9933 6.26001 21.9932 6.25985C 21.9931 6.25939 21.9929 6.25893 22.4648 6.09375ZM 21.2778 5.25392L 17.9028 5.27736L 17.9097 6.27733L 21.2847 6.25389L 21.2778 5.25392ZM 17.9738 5.28193C 17.7721 5.25979 17.5599 5.28873 17.4531 5.31756C 17.3907 5.33548 17.3271 5.3594 17.2959 5.37276C 17.2764 5.38128 17.2555 5.3912 17.2459 5.39598C 17.2393 5.3993 17.2316 5.40331 17.2283 5.40504C 17.2258 5.40637 17.2226 5.40808 17.2214 5.40876C 17.2204 5.40932 17.219 5.41011 17.2185 5.41039C 17.218 5.41065 17.2173 5.41102 17.2171 5.41115C 17.2169 5.41127 17.2165 5.41145 17.2164 5.41152C 17.2163 5.41158 17.2162 5.41166 17.2161 5.41169C 17.216 5.41178 17.2158 5.41187 17.4609 5.84766C 17.7061 6.28344 17.7059 6.28353 17.7058 6.28362C 17.7057 6.28365 17.7056 6.28373 17.7055 6.28379C 17.7056 6.28373 17.7047 6.28423 17.7049 6.28412C 17.705 6.28402 17.7033 6.28498 17.7037 6.28477C 17.704 6.28459 17.7009 6.28632 17.7015 6.28595C 17.7021 6.28568 17.6968 6.28849 17.6979 6.28792C 17.6983 6.28773 17.6921 6.29091 17.6931 6.29041C 17.6915 6.29126 17.6905 6.29151 17.6926 6.29069C 17.7047 6.28538 17.704 6.28513 17.7207 6.28108C 17.7721 6.26596 17.7826 6.25974 17.8387 6.27276L 17.9738 5.28193ZM 17.4609 5.84766C 17.227 5.40576 17.2268 5.40586 17.2266 5.40595C 17.2266 5.40598 17.2264 5.40608 17.2263 5.40614C 17.2262 5.40621 17.2258 5.4064 17.2255 5.40653C 17.2253 5.40667 17.2245 5.40707 17.224 5.40735C 17.2234 5.40766 17.2219 5.40852 17.2207 5.40914C 17.2194 5.40988 17.2159 5.41182 17.2131 5.41334C 17.2097 5.41531 17.2014 5.42012 17.1944 5.42425C 17.1845 5.43024 17.1631 5.44383 17.1441 5.4568C 17.1143 5.47755 17.0558 5.52298 17.0048 5.57055C 16.9203 5.65251 16.7794 5.83632 16.6981 6.04007L 17.6379 6.38181C 17.6528 6.34068 17.6757 6.3125 17.6944 6.29469C 17.7049 6.28366 17.7021 6.28661 17.7126 6.27953C 17.7137 6.27858 17.7113 6.28034 17.71 6.28113C 17.7112 6.28038 17.7037 6.28477 17.7042 6.28447C 17.7054 6.28378 17.6994 6.28711 17.7 6.28679C 17.7008 6.28637 17.6972 6.28832 17.6976 6.28811C 17.698 6.28789 17.696 6.28893 17.6963 6.28882C 17.6965 6.2887 17.6955 6.28924 17.6956 6.28918C 17.6955 6.28924 17.6953 6.28934 17.6952 6.28937C 17.6951 6.28946 17.6949 6.28955 17.4609 5.84766ZM 16.7019 6.0299C 16.4335 6.7219 16.1304 7.35856 15.8886 7.83472C 15.7687 8.07099 15.6672 8.26096 15.5937 8.39536C 15.5575 8.46172 15.5294 8.51217 15.5096 8.5474C 15.4999 8.56462 15.4927 8.57719 15.4877 8.58606C 15.4853 8.5903 15.4836 8.59323 15.4824 8.59539C 15.4818 8.59637 15.4814 8.59697 15.4812 8.59747C 15.481 8.59767 15.481 8.59775 15.4809 8.59785C 15.4809 8.59788 15.4809 8.59789 15.4809 8.59788C 15.4809 8.59787 15.4809 8.59785 15.4809 8.59785C 15.481 8.59783 15.481 8.5978 15.9141 8.84766C 16.3472 9.09752 16.3472 9.09748 16.3472 9.09743C 16.3472 9.09741 16.3472 9.09736 16.3473 9.09732C 16.3473 9.09726 16.3474 9.09714 16.3474 9.09702C 16.3476 9.09682 16.3478 9.09646 16.348 9.09607C 16.3484 9.09538 16.3491 9.09421 16.3498 9.09285C 16.3513 9.09031 16.3536 9.08621 16.3565 9.08119C 16.362 9.07152 16.3705 9.05651 16.3811 9.03764C 16.4019 9.00068 16.433 8.94484 16.4713 8.87479C 16.5469 8.73636 16.6556 8.53301 16.7803 8.28735C 17.0278 7.79964 17.3517 7.11794 17.634 6.39198L 16.7019 6.0299ZM 15.4829 8.59449C 14.7389 9.86164 14.2429 10.4806 13.9314 10.7614C 13.8556 10.8303 13.81 10.8647 13.7564 10.8967C 13.7132 10.9245 13.6717 10.9322 13.6934 10.928C 13.71 10.9237 13.7736 10.9213 13.8359 10.9629L 13.2812 11.7949C 13.4666 11.9185 13.6987 11.9601 13.9457 11.8957C 14.1697 11.8373 14.3859 11.6979 14.6008 11.5042C 15.0305 11.117 15.5892 10.3884 16.3452 9.10082L 15.4829 8.59449ZM 13.8259 10.9564C 13.7586 10.9138 13.6634 10.7749 13.6307 10.3651C 13.5986 9.98149 13.6363 9.5238 13.6367 9.10547L 12.6367 9.10547C 12.6371 9.48401 12.5986 9.9814 12.6339 10.4445C 12.6687 10.8813 12.7843 11.4807 13.2913 11.8014L 13.8259 10.9564ZM 13.6367 9.10547C 13.636 7.88984 13.7304 6.99212 13.6836 6.34472C 13.6585 6.01161 13.5912 5.67232 13.3931 5.38933C 13.1827 5.08885 12.8757 4.92141 12.5161 4.83435L 12.2808 5.80627C 12.4779 5.85399 12.5414 5.91652 12.5739 5.96285C 12.6185 6.02666 12.6662 6.15099 12.6865 6.41993C 12.7305 6.97663 12.6374 7.83673 12.6367 9.10547L 13.6367 9.10547ZM 12.5086 4.83259C 12.1087 4.74231 11.8042 4.68013 10.8226 4.66801L 10.8102 5.66793C 11.727 5.67925 11.9616 5.73426 12.2883 5.80803L 12.5086 4.83259ZM 10.8213 4.66799C 10.2153 4.66212 9.63712 4.66248 9.14048 4.70019C 8.64812 4.73795 8.17117 4.81628 7.79569 5.00019L 8.23556 5.89825C 8.4343 5.80091 8.75422 5.73275 9.21694 5.69727C 9.67538 5.66174 10.2105 5.6621 10.8116 5.66795L 10.8213 4.66799ZM 7.79749 4.99931C 7.54359 5.12783 7.28428 5.35689 7.1538 5.52573C 7.08945 5.6109 7.00151 5.74586 6.97088 5.90536C 6.95536 5.98621 6.94139 6.14318 7.03257 6.30326C 7.13705 6.48669 7.31164 6.55978 7.44564 6.57764L 7.5778 5.58642C 7.66785 5.59842 7.81315 5.6532 7.90151 5.80834C 7.97658 5.94014 7.95968 6.05883 7.95295 6.09391C 7.9399 6.16185 7.91641 6.17524 7.95167 6.12857C 8.00776 6.05432 8.11752 5.95548 8.23376 5.89913L 7.79749 4.99931ZM 7.43374 6.57591C 7.53654 6.59207 7.66241 6.6141 7.804 6.67417C 7.94327 6.73075 8.04569 6.80222 8.10626 6.88386L 8.90936 6.28801C 8.50719 5.74596 7.80746 5.62253 7.5897 5.58815L 7.43374 6.57591ZM 8.50781 6.58594C 8.08091 6.84624 8.0808 6.84605 8.08069 6.84587C 8.08065 6.84581 8.08054 6.84563 8.08047 6.84551C 8.08054 6.84562 8.07991 6.84459 8.08005 6.84482C 8.08017 6.84501 8.07906 6.84317 8.07929 6.84356C 8.07946 6.84384 8.07777 6.84101 8.0781 6.84156C 8.07815 6.84165 8.07684 6.8394 8.07695 6.83959C 8.07599 6.83791 8.07755 6.84056 8.07928 6.84387C 8.08508 6.85469 8.08998 6.86416 8.09979 6.88582C 8.1238 6.93795 8.15031 7.0018 8.18311 7.10778C 8.2562 7.339 8.32851 7.65913 8.34815 8.14329L 9.34716 8.09889C 9.31993 7.52837 9.22232 7.08092 9.1372 6.80824C 9.0909 6.66227 9.04124 6.54008 9.00885 6.46916C 8.99047 6.42929 8.97211 6.39299 8.96171 6.37342C 8.95534 6.36152 8.94863 6.34947 8.94528 6.34359C 8.943 6.33962 8.94037 6.33511 8.93921 6.33314C 8.93833 6.33164 8.9372 6.32976 8.93676 6.32902C 8.93638 6.32839 8.93587 6.32755 8.93568 6.32723C 8.93551 6.32695 8.93527 6.32655 8.93518 6.32641C 8.9351 6.32628 8.93498 6.32608 8.93494 6.32602C 8.93483 6.32582 8.93471 6.32563 8.50781 6.58594ZM 8.34814 8.14316C 8.41133 9.57353 8.29365 10.3331 8.18174 10.7155C 8.13084 10.8978 8.09459 10.9647 8.05646 11.0194C 8.04899 11.0323 8.05235 11.0254 8.05592 11.0224C 8.05056 11.0272 8.08201 11.0001 8.07901 11.0026C 8.07367 11.0066 8.0997 10.9875 8.09694 10.9895C 8.09357 10.9918 8.10923 10.9813 8.10752 10.9824C 8.10567 10.9836 8.11416 10.9782 8.11323 10.9788C 8.11225 10.9794 8.11667 10.9766 8.11618 10.9769C 8.11668 10.9766 8.11743 10.9762 8.11768 10.976C 8.11844 10.9755 8.1192 10.9751 8.37891 11.4023C 8.63861 11.8296 8.63938 11.8291 8.64015 11.8287C 8.64041 11.8285 8.64117 11.828 8.64169 11.8277C 8.64221 11.8274 8.64376 11.8264 8.64481 11.8258C 8.64589 11.8251 8.64901 11.8231 8.65115 11.8217C 8.65344 11.8202 8.65981 11.816 8.6643 11.8129C 8.66932 11.8095 8.68248 11.7999 8.69216 11.7925C 8.70385 11.7834 8.7313 11.76 8.75275 11.7397C 8.78136 11.7114 8.83755 11.6473 8.88409 11.5806C 8.95399 11.476 9.0591 11.2697 9.1415 10.9964C 9.29619 10.4677 9.41289 9.58663 9.34717 8.09903L 8.34814 8.14316ZM 8.14186 10.9621C 8.12447 10.9737 8.15285 10.9651 8.13568 10.9644C 8.11367 10.969 8.13267 10.9704 8.09961 10.9594C 8.04767 10.9457 7.9389 10.8971 7.77405 10.7442C 7.43992 10.4344 6.9803 9.79525 6.40293 8.60587L 5.50332 9.04257C 6.09783 10.2673 6.62258 11.0402 7.09411 11.4775C 7.56771 11.9166 8.11325 12.1133 8.61596 11.8426L 8.14186 10.9621ZM 5.95312 8.82422C 6.38777 8.57707 6.38778 8.57709 6.3878 8.57711C 6.3878 8.57711 6.3878 8.57713 6.38781 8.57713C 6.38782 8.57715 6.3878 8.57712 6.38778 8.57709C 6.38772 8.57698 6.38766 8.57688 6.38754 8.57667C 6.38726 8.57617 6.38691 8.57554 6.38635 8.57455C 6.38514 8.57242 6.38347 8.56947 6.38111 8.56527C 6.37619 8.55653 6.36921 8.54408 6.35979 8.52716C 6.34059 8.49264 6.31324 8.44312 6.27812 8.37841C 6.20709 8.24757 6.1087 8.06291 5.99287 7.83552C 5.75957 7.37768 5.46726 6.77092 5.21005 6.13L 4.28214 6.50282C 4.55227 7.17439 4.86347 7.82154 5.10185 8.28948C 5.22186 8.52498 5.32636 8.72118 5.39925 8.85548C 5.43609 8.92333 5.46596 8.97745 5.48598 9.01343C 5.49618 9.03175 5.50432 9.04627 5.50962 9.05568C 5.51236 9.06055 5.51458 9.06448 5.51597 9.06695C 5.51671 9.06826 5.51734 9.06937 5.51772 9.07002C 5.51793 9.07039 5.51812 9.07073 5.51822 9.07092C 5.51829 9.07103 5.51835 9.07114 5.51838 9.0712C 5.5184 9.07124 5.51843 9.07128 5.51844 9.0713C 5.51846 9.07134 5.51848 9.07137 5.95312 8.82422ZM 5.21334 6.13841C 5.13711 5.95201 5.01249 5.77888 4.93641 5.69607C 4.89192 5.64895 4.84264 5.60394 4.81642 5.58189C 4.80027 5.56847 4.78268 5.55468 4.77418 5.54825C 4.76846 5.54396 4.76182 5.53909 4.75893 5.537C 4.75676 5.53545 4.75402 5.53351 4.75294 5.53274C 4.75204 5.53211 4.75082 5.53126 4.75037 5.53095C 4.74997 5.53067 4.7494 5.53028 4.7492 5.53014C 4.74902 5.53001 4.74874 5.52982 4.74865 5.52976C 4.74856 5.52969 4.74842 5.5296 4.74837 5.52957C 4.74824 5.52948 4.74811 5.52938 4.46484 5.94141C 4.18158 6.35343 4.18145 6.35334 4.18132 6.35325C 4.18127 6.35322 4.18114 6.35313 4.18106 6.35307C 4.18114 6.35313 4.18039 6.3526 4.18055 6.35272C 4.18071 6.35283 4.17927 6.35183 4.17958 6.35205C 4.17985 6.35224 4.17729 6.35044 4.17783 6.35082C 4.1782 6.35108 4.17424 6.34827 4.17502 6.34882C 4.17512 6.3489 4.17157 6.34631 4.17198 6.3466C 4.16986 6.34502 4.1719 6.34639 4.17479 6.3489C 4.18666 6.35871 4.19011 6.36131 4.20422 6.37717C 4.24532 6.42033 4.26133 6.43471 4.27885 6.4944L 5.21334 6.13841ZM 4.46484 5.94141C 4.77181 5.54673 4.7717 5.54665 4.77159 5.54656C 4.77156 5.54653 4.77145 5.54644 4.77137 5.54639C 4.77129 5.54632 4.77106 5.54615 4.77091 5.54603C 4.77073 5.54589 4.77026 5.54552 4.76991 5.54526C 4.76951 5.54495 4.76847 5.54415 4.76767 5.54354C 4.76666 5.54277 4.76422 5.54091 4.76217 5.53938C 4.75929 5.53723 4.753 5.53258 4.74718 5.52839C 4.73806 5.52184 4.71989 5.50918 4.70159 5.4971C 4.67039 5.47669 4.61206 5.4413 4.55061 5.40921C 4.43999 5.35266 4.23516 5.27209 4.02525 5.23628L 3.87319 6.22465C 3.96796 6.23573 4.02095 6.26062 4.09197 6.29783C 4.12134 6.31261 4.13478 6.32116 4.15266 6.33297C 4.1589 6.33701 4.15958 6.33754 4.16319 6.34014C 4.16374 6.34053 4.16298 6.33999 4.16263 6.33972C 4.16305 6.34004 4.16059 6.33818 4.16079 6.33833C 4.16118 6.33863 4.15927 6.33717 4.15947 6.33732C 4.15971 6.3375 4.15858 6.33663 4.1587 6.33673C 4.15884 6.33683 4.15823 6.33636 4.1583 6.33641C 4.15823 6.33636 4.15812 6.33628 4.15809 6.33625C 4.15798 6.33617 4.15787 6.33608 4.46484 5.94141ZM 3.94557 5.23048L 0.734632 5.25392L 0.741931 6.25389L 3.95287 6.23046L 3.94557 5.23048ZM 0.738281 5.25391C 0.413532 5.25391 0.166084 5.32818 -0.0136533 5.42304C -0.0998667 5.47023 -0.18334 5.53097 -0.221342 5.56336C -0.246066 5.58509 -0.272789 5.61123 -0.28415 5.62312C -0.292344 5.63186 -0.302201 5.64287 -0.306095 5.64736C -0.309218 5.651 -0.313314 5.65587 -0.314831 5.6577C -0.316158 5.65932 -0.318004 5.66158 -0.318658 5.66239C -0.319264 5.66314 -0.320137 5.66423 -0.320437 5.66461C -0.320726 5.66497 -0.321151 5.66551 -0.321294 5.66569C -0.321435 5.66586 -0.321644 5.66613 -0.321715 5.66622C -0.321922 5.66648 -0.322129 5.66674 0.0703125 5.97656C 0.462754 6.28638 0.462549 6.28664 0.462344 6.2869C 0.462276 6.28699 0.462071 6.28725 0.461936 6.28742C 0.462069 6.28725 0.46086 6.28877 0.461127 6.28843C 0.461385 6.28811 0.459021 6.29106 0.459541 6.29041C 0.460022 6.28982 0.455515 6.29534 0.456495 6.29414C 0.457317 6.29315 0.449193 6.30278 0.450908 6.30077C 0.451987 6.29954 0.439378 6.31352 0.441804 6.31087C 0.441629 6.31115 0.431725 6.32104 0.432279 6.32018C 0.421941 6.32954 0.433851 6.3159 0.453106 6.30743C 0.484307 6.29096 0.570843 6.25391 0.738281 6.25391L 0.738281 5.25391ZM 0.0703125 5.97656C -0.294455 5.63459 -0.294706 5.63486 -0.294957 5.63513C -0.295042 5.63522 -0.295294 5.63549 -0.295463 5.63567C -0.295635 5.63585 -0.296144 5.6364 -0.296488 5.63677C -0.296844 5.63716 -0.297881 5.63828 -0.298592 5.63906C -0.299349 5.63988 -0.301497 5.64225 -0.303007 5.64394C -0.304693 5.64583 -0.30927 5.65106 -0.312609 5.65496C -0.31662 5.65971 -0.326769 5.67217 -0.334493 5.68217C -0.344624 5.6956 -0.367737 5.72896 -0.385385 5.7581C -0.410233 5.80126 -0.45638 5.90332 -0.482578 5.99914C -0.53372 6.20691 -0.522734 6.46076 -0.401697 6.74606L 0.518885 6.35551C 0.475859 6.25409 0.492704 6.22083 0.488437 6.23816C 0.491197 6.23755 0.479189 6.26163 0.476205 6.2657C 0.479937 6.26019 0.459495 6.29025 0.460653 6.28858C 0.463891 6.28447 0.44785 6.30438 0.449366 6.30257C 0.451457 6.30013 0.441602 6.31145 0.442633 6.31029C 0.443815 6.30897 0.438375 6.31499 0.438964 6.31434C 0.439591 6.31366 0.436736 6.31676 0.437049 6.31642C 0.437373 6.31607 0.43591 6.31765 0.436072 6.31747C 0.435908 6.31765 0.43566 6.31791 0.435578 6.318C 0.43533 6.31827 0.43508 6.31853 0.0703125 5.97656ZM -0.401498 6.74653C 0.867571 9.72617 2.23525 11.9827 3.27245 13.471C 3.79512 14.2204 4.24402 14.7906 4.5556 15.1649C 4.71343 15.3543 4.84128 15.5 4.92647 15.5946C 4.97008 15.643 5.00513 15.681 5.02772 15.7052C 5.03952 15.7178 5.04924 15.7281 5.05524 15.7344C 5.0585 15.7378 5.06133 15.7408 5.06297 15.7425C 5.06391 15.7435 5.06482 15.7444 5.06529 15.7449C 5.06559 15.7452 5.06591 15.7456 5.06606 15.7457C 5.06617 15.7458 5.0663 15.746 5.06635 15.746C 5.06647 15.7461 5.06657 15.7462 5.42578 15.3984C 5.78499 15.0506 5.78507 15.0507 5.78515 15.0508C 5.78516 15.0508 5.78522 15.0509 5.78524 15.0509C 5.78526 15.0509 5.78528 15.0509 5.78523 15.0509C 5.78501 15.0506 5.78487 15.0505 5.78443 15.05C 5.7833 15.0489 5.782 15.0475 5.77976 15.0452C 5.77479 15.0399 5.76814 15.0329 5.75839 15.0225C 5.73787 15.0005 5.70904 14.9693 5.66957 14.9254C 5.58859 14.8355 5.47346 14.7044 5.32404 14.5249C 5.02112 14.1613 4.59844 13.6248 4.09279 12.8991C 3.07334 11.4372 1.75743 9.26993 0.518685 6.35504L -0.401498 6.74653ZM 5.42578 15.3984C 5.06456 15.7442 5.06467 15.7443 5.06479 15.7444C 5.06485 15.7445 5.06498 15.7446 5.06509 15.7447C 5.06524 15.7449 5.06556 15.7452 5.06586 15.7455C 5.06631 15.746 5.0672 15.7469 5.06811 15.7478C 5.06966 15.7494 5.0724 15.7523 5.07549 15.7554C 5.0811 15.7612 5.09039 15.7706 5.10151 15.7818C 5.12261 15.803 5.156 15.8361 5.19726 15.8758C 5.27736 15.9528 5.40033 16.0673 5.55254 16.1996C 5.85157 16.4592 6.29918 16.8166 6.83238 17.1606C 7.89355 17.8438 9.39762 18.544 11.0355 18.4404L 10.9723 17.4424C 9.64535 17.5263 8.36036 16.955 7.37368 16.3198C 6.88295 16.0047 6.49194 15.6912 6.20832 15.4447C 6.06921 15.3239 5.96486 15.2266 5.89046 15.155C 5.85448 15.1204 5.82882 15.095 5.81019 15.0763C 5.80145 15.0675 5.7957 15.0617 5.79125 15.0571C 5.7893 15.0551 5.78825 15.054 5.78726 15.053C 5.7869 15.0526 5.78684 15.0526 5.78666 15.0524C 5.78664 15.0523 5.7867 15.0524 5.78671 15.0524C 5.78674 15.0524 5.78681 15.0525 5.78683 15.0525C 5.78691 15.0526 5.787 15.0527 5.42578 15.3984ZM 11.0039 18.4414L 12.3516 18.4414L 12.3516 17.4414L 11.0039 17.4414L 11.0039 18.4414ZM 12.3943 18.4396C 12.6752 18.4096 12.9332 18.3077 13.066 18.2323C 13.1419 18.1876 13.214 18.1351 13.2499 18.1059C 13.2718 18.0878 13.2942 18.0679 13.3047 18.058C 13.3117 18.0514 13.3197 18.0437 13.3231 18.0403C 13.3257 18.0377 13.3289 18.0345 13.3301 18.0332C 13.3311 18.0321 13.3325 18.0307 13.3331 18.0302C 13.3335 18.0297 13.3342 18.029 13.3344 18.0288C 13.3346 18.0285 13.3349 18.0282 13.335 18.0281C 13.3351 18.028 13.3353 18.0278 13.3353 18.0278C 13.3355 18.0276 13.3356 18.0275 12.9727 17.6836C 12.6097 17.3397 12.6098 17.3396 12.61 17.3394C 12.61 17.3394 12.6102 17.3392 12.6103 17.3391C 12.6102 17.3392 12.611 17.3383 12.6108 17.3385C 12.6107 17.3387 12.6123 17.337 12.6119 17.3373C 12.6116 17.3377 12.6146 17.3346 12.614 17.3353C 12.6135 17.3357 12.6182 17.331 12.6172 17.3319C 12.6171 17.3321 12.6213 17.328 12.6209 17.3284C 12.6235 17.3259 12.621 17.3286 12.6167 17.332C 12.6002 17.3456 12.594 17.351 12.5659 17.3663C 12.5148 17.3958 12.4297 17.4329 12.3089 17.4432L 12.3943 18.4396ZM 12.9727 17.6836C 13.3464 18.0158 13.3465 18.0156 13.3467 18.0154C 13.3467 18.0154 13.3469 18.0152 13.347 18.0151C 13.3471 18.015 13.3474 18.0146 13.3476 18.0144C 13.3478 18.0141 13.3485 18.0134 13.3489 18.0128C 13.3494 18.0123 13.3508 18.0107 13.3518 18.0095C 13.353 18.0082 13.356 18.0046 13.3584 18.0018C 13.3614 17.9981 13.3685 17.9894 13.3745 17.9819C 13.383 17.9709 13.4009 17.9468 13.4164 17.924C 13.441 17.8872 13.4854 17.8118 13.521 17.7347C 13.5793 17.6021 13.6502 17.3431 13.6482 17.0708L 12.6487 17.1011C 12.6519 17.2084 12.6278 17.2828 12.6089 17.3249C 12.599 17.3488 12.5973 17.3504 12.5871 17.3652C 12.5853 17.3682 12.5853 17.3677 12.5869 17.3657C 12.5861 17.3667 12.5915 17.3601 12.5911 17.3604C 12.5902 17.3616 12.595 17.3559 12.5946 17.3564C 12.5939 17.3572 12.597 17.3537 12.5966 17.354C 12.5963 17.3545 12.5979 17.3525 12.5978 17.3528C 12.5976 17.353 12.5984 17.352 12.5983 17.3521C 12.5984 17.352 12.5986 17.3518 12.5986 17.3518C 12.5988 17.3516 12.599 17.3514 12.9727 17.6836ZM 13.6484 17.0794C 13.6377 16.2557 13.825 15.8482 13.9575 15.6615C 14.0234 15.5623 14.0625 15.5325 14.1182 15.4957C 14.1354 15.4832 14.1344 15.4843 14.1464 15.4788C 14.1473 15.4782 14.1424 15.4805 14.1414 15.4808C 14.1434 15.4801 14.1323 15.4842 14.1332 15.4839C 14.1349 15.4833 14.1268 15.4861 14.1276 15.4858C 14.1286 15.4855 14.1239 15.487 14.1244 15.4869C 14.1249 15.4867 14.1224 15.4875 14.1227 15.4874C 14.1224 15.4875 14.1219 15.4877 14.1218 15.4877C 14.1213 15.4879 14.1209 15.488 13.9688 15.0117C 13.8166 14.5354 13.8161 14.5356 13.8157 14.5357C 13.8155 14.5358 13.8151 14.5359 13.8147 14.536C 13.8144 14.5361 13.8135 14.5364 13.8128 14.5367C 13.8121 14.5369 13.8101 14.5376 13.8087 14.538C 13.807 14.5386 13.8027 14.5401 13.7994 14.5412C 13.7953 14.5427 13.7853 14.5464 13.7772 14.5495C 13.7658 14.554 13.7408 14.5645 13.7187 14.5749C 13.6846 14.5912 13.6179 14.6274 13.5564 14.6684C 13.4546 14.7385 13.2842 14.8888 13.1421 15.0826C 12.8586 15.4819 12.6357 16.1115 12.6485 17.0924L 13.6484 17.0794ZM 14.1187 15.4887C 14.0971 15.4955 14.1465 15.4618 14.3369 15.5963C 14.5325 15.7318 14.7357 15.9434 14.9822 16.2185C 15.4482 16.7384 16.0579 17.5118 16.6855 17.9433L 17.252 17.1192C 16.7546 16.7773 16.2745 16.162 15.7268 15.551C 15.4664 15.2607 15.1819 14.9713 14.9138 14.7794C 14.6406 14.5865 14.2505 14.3991 13.8188 14.5347L 14.1187 15.4887ZM 16.9688 17.5312C 16.6862 17.9438 16.6863 17.9438 16.6864 17.9439C 16.6864 17.9439 16.6865 17.944 16.6866 17.944C 16.6867 17.9441 16.6869 17.9443 16.6871 17.9444C 16.6873 17.9445 16.6879 17.9449 16.6883 17.9452C 16.689 17.9457 16.6904 17.9466 16.6917 17.9475C 16.6938 17.9489 16.6979 17.9516 16.7022 17.9545C 16.7097 17.9595 16.7226 17.968 16.7373 17.9774C 16.7645 17.9947 16.8087 18.0222 16.8596 18.0521C 16.9567 18.109 17.1089 18.1914 17.2746 18.2653C 17.5874 18.4038 18.0846 18.575 18.5668 18.4786L 18.3707 17.498C 18.2084 17.5304 17.9556 17.4732 17.6795 17.3509C 17.5508 17.2944 17.4488 17.2384 17.3653 17.1894C 17.326 17.1664 17.2983 17.1491 17.2762 17.135C 17.2662 17.1286 17.2602 17.1246 17.2549 17.1211C 17.2527 17.1197 17.2519 17.1191 17.2508 17.1184C 17.2505 17.1182 17.2503 17.118 17.2504 17.1181C 17.2504 17.1181 17.2507 17.1184 17.2507 17.1183C 17.2506 17.1183 17.251 17.1185 17.251 17.1185C 17.251 17.1185 17.2511 17.1186 17.2511 17.1186C 17.2512 17.1187 17.2513 17.1187 16.9688 17.5312ZM 18.4766 18.4882L 21.4766 18.4413L 21.4609 17.4415L 18.4609 17.4883L 18.4766 18.4882ZM 21.4725 18.4414C 21.9267 18.438 22.3075 18.3422 22.5831 18.1163C 22.8746 17.8774 22.9694 17.5596 22.9778 17.2905C 22.9798 17.0522 22.9152 16.7937 22.8622 16.649C 22.8331 16.5713 22.8003 16.4977 22.7798 16.4554C 22.7683 16.4318 22.7569 16.4096 22.7504 16.3974C 22.7466 16.3902 22.7426 16.383 22.7406 16.3794C 22.7393 16.377 22.7379 16.3744 22.7372 16.3732C 22.7368 16.3724 22.7362 16.3713 22.7359 16.3709C 22.7357 16.3706 22.7355 16.3701 22.7354 16.37C 22.7353 16.3698 22.7352 16.3696 22.7351 16.3695C 22.735 16.3693 22.7349 16.3691 22.3008 16.6172C 21.8667 16.8653 21.8666 16.8651 21.8664 16.8649C 21.8664 16.8648 21.8663 16.8646 21.8663 16.8645C 21.8663 16.8646 21.8658 16.8637 21.8659 16.8639C 21.866 16.864 21.8653 16.8628 21.8654 16.863C 21.8654 16.863 21.8651 16.8624 21.8651 16.8626C 21.8659 16.8639 21.866 16.864 21.8672 16.8665C 21.871 16.8735 21.8741 16.8795 21.88 16.8918C 21.8944 16.9213 21.9078 16.9504 21.9243 16.9959C 21.9625 17.0976 21.9865 17.168 21.9783 17.2594C 21.9764 17.3198 21.9621 17.3323 21.9493 17.3428C 21.9206 17.3663 21.8018 17.4389 21.465 17.4414L 21.4725 18.4414ZM 22.7379 16.3744C 22.7464 16.3893 22.6899 16.2797 22.6064 16.1424C 22.5298 16.0176 22.4063 15.8324 22.2328 15.6063C 21.8961 15.1689 21.3233 14.5167 20.4027 13.6609L 19.7223 14.3937C 21.4839 16.0296 21.8276 16.795 21.8637 16.86L 22.7379 16.3744ZM 20.4033 13.6614C 19.9335 13.224 19.6264 12.9435 19.4487 12.7096C 19.2981 12.5139 19.303 12.4377 19.3183 12.3658C 19.3485 12.2228 19.4667 12.001 19.7863 11.5666C 20.0933 11.1491 20.5334 10.6019 21.1067 9.83956L 20.3074 9.23857C 19.744 9.98799 19.3007 10.5394 18.9808 10.974C 18.6734 11.3918 18.421 11.7757 18.3399 12.1587C 18.2438 12.6126 18.3967 12.9824 18.6563 13.3196C 18.8887 13.6186 19.254 13.9576 19.7217 14.3933L 20.4033 13.6614ZM 21.1067 9.83947C 21.8079 8.90607 22.315 8.12759 22.6167 7.53208C 22.771 7.22539 22.8872 6.9281 22.9449 6.69295C 23.004 6.44747 23.0268 6.17454 22.9344 5.92196L 21.9953 6.26554C 21.9745 6.23223 22.0111 6.31314 21.9727 6.45915C 21.9334 6.62756 21.8584 6.8166 21.7241 7.0812C 21.4486 7.62827 20.989 8.33221 20.3073 9.23866L 21.1067 9.83947Z"/>
</defs>
</svg>
